<svg version="1.1" id="Layer_1" xmlns="http://www.w3.org/2000/svg" xmlns:xlink="http://www.w3.org/1999/xlink" x="0px" y="0px"
	 width="342" height="68" viewBox="0 0 1149.5 228.2" style="enable-background:new 0 0 1149.5 228.2;" xml:space="preserve">
<style type="text/css">
	.st0{fill:#00355B;}
	.st1{fill:#0095D6;}
</style>
<path class="st0" d="M365.1,100.5c-1.1,0-2.2-0.7-2.6-1.8l-3.3-8.3h-21.7l-3.3,8.3c-0.5,1.1-1.5,1.8-2.6,1.8c-1.8,0-2.9-1.4-2.9-2.9
	c0-0.3,0.1-0.7,0.2-1l15-37.5c0.7-1.8,2.4-2.9,4.4-2.9c1.9,0,3.6,1.2,4.3,2.9l15.2,37.5c0.1,0.3,0.2,0.7,0.2,1
	C368.1,99,366.9,100.5,365.1,100.5z M357.6,85.6l-9.2-23.5l-9.3,23.5H357.6z"/>
<path class="st0" d="M389.5,100.9c-6.4,0-11.7-2.2-15.3-5.4c-0.6-0.5-0.9-1.2-0.9-2c0-1.3,1-2.7,2.6-2.7c0.5,0,1.1,0.1,1.6,0.5
	c3.1,2.7,7.2,4.8,12.2,4.8c7.8,0,10.3-4.2,10.3-7.5c0-11.2-25.8-5-25.8-20.6c0-7.1,6.4-12.1,15-12.1c5.6,0,10.5,1.7,14,4.6
	c0.6,0.5,0.9,1.2,0.9,2c0,1.3-1,2.6-2.6,2.6c-0.6,0-1.1-0.2-1.6-0.6c-3.2-2.6-7.2-3.8-11.2-3.8c-5.2,0-9,2.7-9,6.9
	c0,9.8,25.8,4.2,25.8,20.5C405.5,94.4,401.2,100.9,389.5,100.9z"/>
<path class="st0" d="M441,61.3h-11.9v36.5c0,1.5-1.2,2.7-2.7,2.7c-1.5,0-2.7-1.2-2.7-2.7V61.3h-11.8c-1.3,0-2.4-1-2.4-2.5
	c0-1.3,1-2.4,2.4-2.4H441c1.3,0,2.4,1,2.4,2.5C443.4,60.3,442.4,61.3,441,61.3z"/>
<path class="st0" d="M491.9,97.8c0,1.5-1.2,2.7-2.7,2.7c-1.5,0-2.7-1.2-2.7-2.7V64.2l-14.6,35.4c-0.2,0.5-0.7,0.9-1.4,0.9
	c-0.5,0-1-0.3-1.2-0.9l-14.6-35.4v33.6c0,1.5-1.2,2.7-2.7,2.7c-1.5,0-2.7-1.2-2.7-2.7V60.6c0-2.4,2-4.4,4.5-4.4c1.8,0,3.6,1,4.3,2.7
	l12.5,30.4l12.6-30.4c0.7-1.8,2.5-2.7,4.3-2.7c2.4,0,4.5,2,4.5,4.4V97.8z"/>
<path class="st0" d="M521,97.8c0,1.5-1.2,2.7-2.7,2.7c-1.5,0-2.7-1.2-2.7-2.7V58.7c0-1.5,1.2-2.6,2.8-2.6c1.5,0,2.6,1.1,2.6,2.6
	V97.8z"/>
<path class="st0" d="M565.7,97.4c0,1.6-1.3,3.1-3.3,3.1c-1,0-2.1-0.5-2.7-1.4L535,65.3v32.5c0,1.5-1.2,2.7-2.7,2.7
	c-1.5,0-2.7-1.2-2.7-2.7V59.4c0-1.8,1.4-3.3,3.5-3.3c1.1,0,2.2,0.5,2.9,1.4l24.3,33V58.7c0-1.5,1.2-2.6,2.8-2.6
	c1.5,0,2.6,1.1,2.6,2.6V97.4z"/>
<path class="st0" d="M603.4,61.3h-11.9v36.5c0,1.5-1.2,2.7-2.7,2.7c-1.5,0-2.7-1.2-2.7-2.7V61.3h-11.8c-1.3,0-2.4-1-2.4-2.5
	c0-1.3,1-2.4,2.4-2.4h29.2c1.3,0,2.4,1,2.4,2.5C605.7,60.3,604.7,61.3,603.4,61.3z"/>
<path class="st0" d="M638.1,100.1h-22.7c-2.2,0-3.9-1.8-3.9-3.9V60.4c0-2.2,1.8-3.9,3.9-3.9h22.7c1.3,0,2.4,1,2.4,2.5
	c0,1.3-1,2.4-2.4,2.4h-21.2v14.1h20.7c1.3,0,2.4,1,2.4,2.5c0,1.3-1,2.4-2.4,2.4h-20.7v15h21.2c1.3,0,2.4,1,2.4,2.4
	C640.5,99.1,639.4,100.1,638.1,100.1z"/>
<path class="st0" d="M668.3,82.3l9.4,14.2c0.3,0.5,0.4,0.9,0.4,1.4c0,1.3-1.1,2.6-2.7,2.6c-0.9,0-1.6-0.4-2.2-1.2l-10.7-16.5h-8.7
	v15c0,1.5-1.2,2.7-2.7,2.7c-1.5,0-2.7-1.2-2.7-2.7V60.4c0-2.2,1.8-3.9,3.9-3.9h13.6c8,0,13.7,5.1,13.7,13.1
	C679.6,77.5,674.3,81.8,668.3,82.3z M653.8,61.3V78h11.4c5.2,0,8.7-3.4,8.7-8.4s-3.5-8.3-8.7-8.3H653.8z"/>
<path class="st0" d="M723.6,97.4c0,1.6-1.3,3.1-3.3,3.1c-1,0-2.1-0.5-2.7-1.4l-24.7-33.8v32.5c0,1.5-1.2,2.7-2.7,2.7
	c-1.5,0-2.7-1.2-2.7-2.7V59.4c0-1.8,1.4-3.3,3.5-3.3c1.1,0,2.2,0.5,2.9,1.4l24.3,33V58.7c0-1.5,1.2-2.6,2.8-2.6
	c1.5,0,2.6,1.1,2.6,2.6V97.4z"/>
<path class="st0" d="M766.6,100.5c-1.1,0-2.2-0.7-2.6-1.8l-3.3-8.3H739l-3.3,8.3c-0.5,1.1-1.5,1.8-2.6,1.8c-1.8,0-2.9-1.4-2.9-2.9
	c0-0.3,0.1-0.7,0.2-1l15-37.5c0.7-1.8,2.4-2.9,4.4-2.9c1.9,0,3.6,1.2,4.3,2.9l15.2,37.5c0.1,0.3,0.2,0.7,0.2,1
	C769.5,99,768.4,100.5,766.6,100.5z M759.1,85.6l-9.2-23.5l-9.3,23.5H759.1z"/>
<path class="st0" d="M797.7,61.3h-11.9v36.5c0,1.5-1.2,2.7-2.7,2.7c-1.5,0-2.7-1.2-2.7-2.7V61.3h-11.8c-1.3,0-2.4-1-2.4-2.5
	c0-1.3,1-2.4,2.4-2.4h29.2c1.3,0,2.4,1,2.4,2.5C800.1,60.3,799,61.3,797.7,61.3z"/>
<path class="st0" d="M812,97.8c0,1.5-1.2,2.7-2.7,2.7c-1.5,0-2.7-1.2-2.7-2.7V58.7c0-1.5,1.2-2.6,2.8-2.6c1.5,0,2.6,1.1,2.6,2.6
	V97.8z"/>
<path class="st0" d="M840.7,100.9c-12.9,0-21.6-9.7-21.6-22.6c0-12.9,8.8-22.6,21.6-22.6c12.9,0,21.6,9.7,21.6,22.6
	C862.4,91.2,853.6,100.9,840.7,100.9z M840.7,60.6c-9.8,0-16,7.5-16,17.7c0,10.1,6.2,17.7,16,17.7c9.7,0,16-7.6,16-17.7
	C856.8,68.1,850.4,60.6,840.7,60.6z"/>
<path class="st0" d="M906,97.4c0,1.6-1.3,3.1-3.3,3.1c-1,0-2.1-0.5-2.7-1.4l-24.7-33.8v32.5c0,1.5-1.2,2.7-2.7,2.7
	c-1.5,0-2.7-1.2-2.7-2.7V59.4c0-1.8,1.4-3.3,3.5-3.3c1.1,0,2.2,0.5,2.9,1.4l24.3,33V58.7c0-1.5,1.2-2.6,2.8-2.6
	c1.5,0,2.6,1.1,2.6,2.6V97.4z"/>
<path class="st0" d="M949,100.5c-1.1,0-2.2-0.7-2.6-1.8l-3.3-8.3h-21.7l-3.3,8.3c-0.5,1.1-1.5,1.8-2.6,1.8c-1.8,0-2.9-1.4-2.9-2.9
	c0-0.3,0.1-0.7,0.2-1l15-37.5c0.7-1.8,2.4-2.9,4.4-2.9c1.9,0,3.6,1.2,4.3,2.9l15.2,37.5c0.1,0.3,0.2,0.7,0.2,1
	C951.9,99,950.8,100.5,949,100.5z M941.5,85.6l-9.2-23.5L923,85.6H941.5z"/>
<path class="st0" d="M982.3,100.1h-19.8c-2.2,0-3.9-1.8-3.9-3.9V58.7c0-1.5,1.2-2.6,2.8-2.6c1.5,0,2.6,1.1,2.6,2.6v36.6h18.3
	c1.3,0,2.4,1,2.4,2.4C984.6,99.1,983.6,100.1,982.3,100.1z"/>
<path class="st1" d="M365.1,168.7c0,1.5-1.2,2.7-2.7,2.7c-1.5,0-2.7-1.2-2.7-2.7V151h-25.5v17.7c0,1.5-1.2,2.7-2.7,2.7
	c-1.5,0-2.7-1.2-2.7-2.7v-39.1c0-1.5,1.2-2.6,2.8-2.6c1.5,0,2.6,1.1,2.6,2.6v16.5h25.5v-16.5c0-1.5,1.2-2.6,2.8-2.6
	c1.5,0,2.6,1.1,2.6,2.6V168.7z"/>
<path class="st1" d="M400.6,156.8h-22.8c0.3,6,4.6,10.9,11.4,10.9c3.1,0,6-0.9,8.5-2.9c0.3-0.2,0.7-0.3,1.1-0.3c0.8,0,2,0.8,2,2
	c0,0.7-0.3,1.2-0.7,1.6c-3.1,2.6-6.9,3.7-11.3,3.7c-9.4,0-16.1-6.7-16.1-16.6c0-9.2,6.5-16.5,15.6-16.5c7.8,0,13.1,5,14.6,12.2
	c0.2,1,0.5,2.2,0.5,3.3C403.3,155.6,402.1,156.8,400.6,156.8z M398.5,153.2c0-4.7-3.3-10.5-10.4-10.5c-6.7,0-10.1,5.7-10.3,10.5
	H398.5z"/>
<path class="st1" d="M415.7,168.9c0,1.3-1.1,2.4-2.5,2.4c-1.3,0-2.4-1.1-2.4-2.4v-39.6c0-1.2,1-2.4,2.6-2.4c1.2,0,2.4,1.1,2.4,2.4
	V168.9z"/>
<path class="st1" d="M439.4,171.8c-4.4,0-8.1-2-10.7-5.6V181c0,1.2-1.1,2.4-2.5,2.4c-1.3,0-2.4-1.1-2.4-2.4v-39.7
	c0-1.2,1-2.4,2.6-2.4c1.2,0,2.4,1.1,2.4,2.4v2.7c2.3-3.2,6.2-5.5,10.7-5.5c8.4,0,14.1,6.3,14.1,16.5
	C453.5,165.4,447.8,171.8,439.4,171.8z M438.2,143c-3.9,0-7.7,2.2-9.4,5v14.3c1.8,2.8,5.5,5.1,9.4,5.1c6.3,0,10.1-5.2,10.1-12.2
	C448.3,148.2,444.5,143,438.2,143z"/>
<path class="st1" d="M466.5,131.6c0,1.8-1.5,3.3-3.3,3.3c-1.8,0-3.3-1.4-3.3-3.3c0-1.8,1.5-3.3,3.3-3.3
	C465,128.3,466.5,129.8,466.5,131.6z M465.7,168.9c0,1.3-1.1,2.4-2.5,2.4c-1.3,0-2.4-1.1-2.4-2.4v-27.6c0-1.2,1-2.4,2.6-2.4
	c1.2,0,2.4,1.1,2.4,2.4V168.9z"/>
<path class="st1" d="M499.1,168.9c0,1.3-1.1,2.4-2.5,2.4c-1.3,0-2.4-1.1-2.4-2.4v-18.6c0-5.6-2.8-7.3-7.1-7.3
	c-3.8,0-7.6,2.3-9.4,4.9v21.1c0,1.3-1.1,2.4-2.5,2.4c-1.3,0-2.4-1.1-2.4-2.4v-27.6c0-1.2,1-2.4,2.6-2.4c1.2,0,2.4,1.1,2.4,2.4v2.6
	c2.2-2.6,6.5-5.4,11.2-5.4c6.6,0,10.1,3.3,10.1,10.2V168.9z"/>
<path class="st1" d="M535.2,170.1c0,10.5-7.4,13.7-15,13.7c-4.7,0-8.4-0.9-11.8-3.8c-0.5-0.4-0.7-0.9-0.7-1.6c0-1.1,0.9-2.1,2.2-2.1
	c0.6,0,1,0.1,1.4,0.5c2.6,2.3,5.3,3,9,3c5.2,0,10.1-2.5,10.1-9.5v-4.5c-2.3,3.2-6.1,5.6-10.6,5.6c-8.2,0-14.1-6.1-14.1-16.4
	c0-10.1,5.7-16.4,14.1-16.4c4.3,0,8,2.1,10.6,5.6v-2.8c0-1.2,1-2.4,2.6-2.4c1.2,0,2.4,1.1,2.4,2.4V170.1z M530.3,148.1
	c-1.7-2.7-5.5-5.1-9.4-5.1c-6.3,0-10.1,5-10.1,12c0,6.9,3.8,12,10.1,12c3.9,0,7.7-2.4,9.4-5.2V148.1z"/>
<path class="st1" d="M572.3,171.8c-9.7,0-15.6-7.5-15.6-16.6c0-9.2,6-16.5,15.6-16.5c9.7,0,15.6,7.4,15.6,16.5
	C587.9,164.3,582,171.8,572.3,171.8z M572.3,143c-6.8,0-10.5,5.8-10.5,12.2c0,6.5,3.7,12.2,10.5,12.2c6.7,0,10.5-5.8,10.5-12.2
	C582.8,148.7,579,143,572.3,143z"/>
<path class="st1" d="M621.1,168.9c0,1.3-1.1,2.4-2.5,2.4c-1.3,0-2.4-1.1-2.4-2.4v-2.4c-2.4,2.8-6.5,5.2-11.2,5.2
	c-6.6,0-10.1-3.2-10.1-10.1v-20.3c0-1.2,1-2.4,2.6-2.4c1.2,0,2.4,1.1,2.4,2.4v18.8c0,5.6,2.8,7.2,7.1,7.2c3.9,0,7.5-2.2,9.4-4.8
	v-21.3c0-1.2,1-2.4,2.6-2.4c1.2,0,2.4,1.1,2.4,2.4V168.9z"/>
<path class="st1" d="M642.2,143.8c-3.2,0.2-6.3,1.6-8.4,4.8v20.3c0,1.3-1.1,2.4-2.5,2.4h-0.1c-1.3-0.1-2.4-1.1-2.4-2.4v-27.6
	c0-1.2,1-2.4,2.6-2.4c1.2,0,2.4,1.1,2.4,2.4v3.1c2-2.5,5-5.6,8.7-5.6c1.2,0,2.2,1,2.2,2.3C644.8,142.7,643.7,143.8,642.2,143.8z"/>
<path class="st1" d="M705.5,142l-8.7,27.2c-0.5,1.2-1.5,2.2-3,2.2h-0.1c-1.4,0-2.5-0.9-2.9-2.2l-7.7-23.6l-7.7,23.6
	c-0.5,1.2-1.6,2.2-3.1,2.2h-0.1c-1.4,0-2.4-0.9-2.9-2.2l-8.7-27.2c-0.1-0.3-0.1-0.5-0.1-0.7c0-1.1,1-2.4,2.4-2.4
	c1,0,2.1,0.7,2.4,1.6l7.3,23.9l7.8-23.7c0.5-1.1,1.3-1.8,2.6-1.8c1.1,0,2,0.7,2.5,1.8l7.8,23.7l7.3-23.9c0.3-1,1.3-1.6,2.4-1.6
	c1.4,0,2.4,1.1,2.4,2.4C705.6,141.5,705.6,141.7,705.5,142z"/>
<path class="st1" d="M725.5,171.8c-9.7,0-15.6-7.5-15.6-16.6c0-9.2,6-16.5,15.6-16.5s15.6,7.4,15.6,16.5
	C741.1,164.3,735.2,171.8,725.5,171.8z M725.5,143c-6.8,0-10.5,5.8-10.5,12.2c0,6.5,3.7,12.2,10.5,12.2c6.7,0,10.5-5.8,10.5-12.2
	C736,148.7,732.2,143,725.5,143z"/>
<path class="st1" d="M761.4,143.8c-3.2,0.2-6.3,1.6-8.4,4.8v20.3c0,1.3-1.1,2.4-2.5,2.4h-0.1c-1.3-0.1-2.4-1.1-2.4-2.4v-27.6
	c0-1.2,1-2.4,2.5-2.4c1.2,0,2.4,1.1,2.4,2.4v3.1c2-2.5,5-5.6,8.7-5.6c1.2,0,2.2,1,2.2,2.3C764,142.7,762.9,143.8,761.4,143.8z"/>
<path class="st1" d="M774.3,168.9c0,1.3-1.1,2.4-2.5,2.4c-1.3,0-2.4-1.1-2.4-2.4v-39.6c0-1.2,1-2.4,2.5-2.4c1.2,0,2.4,1.1,2.4,2.4
	V168.9z"/>
<path class="st1" d="M810.6,168.9c0,1.3-1.1,2.4-2.5,2.4c-1.3,0-2.4-1.1-2.4-2.4v-2.7c-2.4,3.2-6.2,5.5-10.7,5.5
	c-8.2,0-14.1-6.3-14.1-16.5c0-10.1,5.7-16.6,14.1-16.6c4.3,0,8.1,2.1,10.7,5.6v-14.8c0-1.2,1-2.4,2.5-2.4c1.2,0,2.4,1.1,2.4,2.4
	V168.9z M805.7,148.1c-1.8-2.8-5.6-5.1-9.5-5.1c-6.3,0-10.1,5.2-10.1,12.2c0,7,3.8,12.2,10.1,12.2c3.9,0,7.7-2.2,9.5-5V148.1z"/>
<path class="st1" d="M875.3,142l-8.7,27.2c-0.5,1.2-1.5,2.2-3,2.2h-0.1c-1.4,0-2.5-0.9-2.9-2.2l-7.7-23.6l-7.7,23.6
	c-0.5,1.2-1.6,2.2-3.1,2.2h-0.1c-1.4,0-2.4-0.9-2.9-2.2l-8.7-27.2c-0.1-0.3-0.1-0.5-0.1-0.7c0-1.1,1-2.4,2.4-2.4
	c1,0,2.1,0.7,2.4,1.6l7.3,23.9l7.8-23.7c0.5-1.1,1.3-1.8,2.6-1.8c1.1,0,2,0.7,2.5,1.8l7.8,23.7l7.3-23.9c0.3-1,1.3-1.6,2.4-1.6
	c1.4,0,2.4,1.1,2.4,2.4C875.5,141.5,875.4,141.7,875.3,142z"/>
<path class="st1" d="M895.3,171.8c-9.7,0-15.6-7.5-15.6-16.6c0-9.2,6-16.5,15.6-16.5S911,146,911,155.1
	C911,164.3,905,171.8,895.3,171.8z M895.3,143c-6.8,0-10.5,5.8-10.5,12.2c0,6.5,3.7,12.2,10.5,12.2c6.7,0,10.5-5.8,10.5-12.2
	C905.8,148.7,902.1,143,895.3,143z"/>
<path class="st1" d="M931.2,143.8c-3.2,0.2-6.3,1.6-8.4,4.8v20.3c0,1.3-1.1,2.4-2.5,2.4h-0.1c-1.3-0.1-2.4-1.1-2.4-2.4v-27.6
	c0-1.2,1-2.4,2.5-2.4c1.2,0,2.4,1.1,2.4,2.4v3.1c2-2.5,5-5.6,8.7-5.6c1.2,0,2.2,1,2.2,2.3C933.8,142.7,932.7,143.8,931.2,143.8z"/>
<path class="st1" d="M962.2,171.4c-0.7,0-1.4-0.3-1.9-0.9l-11-13.7l-5.2,5.2v7c0,1.3-1.1,2.4-2.5,2.4c-1.3,0-2.4-1.1-2.4-2.4v-39.6
	c0-1.2,1-2.4,2.5-2.4c1.2,0,2.4,1.1,2.4,2.4v26.9l16.4-16.6c0.5-0.5,0.9-0.7,1.5-0.7c1.2,0,2.3,1.1,2.3,2.4c0,0.6-0.2,1-0.6,1.4
	l-10.7,11l11.2,13.8c0.3,0.5,0.5,0.9,0.5,1.4C964.6,170.1,963.7,171.4,962.2,171.4z"/>
<path class="st1" d="M1001.9,171.8c-4.4,0-8.3-2.3-10.7-5.5v2.7c0,1.3-1.1,2.4-2.5,2.4c-1.3,0-2.4-1.1-2.4-2.4v-39.6
	c0-1.2,1-2.4,2.5-2.4c1.2,0,2.4,1.1,2.4,2.4v14.8c2.6-3.5,6.3-5.6,10.7-5.6c8.2,0,14.1,6.5,14.1,16.6
	C1015.9,165.5,1010,171.8,1001.9,171.8z M1000.6,143c-3.9,0-7.7,2.3-9.4,5.1v14.3c1.8,2.8,5.5,5,9.4,5c6.5,0,10.2-5.2,10.2-12.2
	C1010.8,148.2,1007.1,143,1000.6,143z"/>
<path class="st1" d="M1049.4,156.8h-22.8c0.3,6,4.6,10.9,11.4,10.9c3.1,0,6-0.9,8.5-2.9c0.3-0.2,0.7-0.3,1.1-0.3c0.9,0,2,0.8,2,2
	c0,0.7-0.3,1.2-0.7,1.6c-3.1,2.6-6.9,3.7-11.3,3.7c-9.4,0-16.1-6.7-16.1-16.6c0-9.2,6.5-16.5,15.6-16.5c7.8,0,13.1,5,14.6,12.2
	c0.2,1,0.5,2.2,0.5,3.3C1052.1,155.6,1050.9,156.8,1049.4,156.8z M1047.3,153.2c0-4.7-3.3-10.5-10.4-10.5c-6.7,0-10.1,5.7-10.3,10.5
	H1047.3z"/>
<path class="st1" d="M1067.7,171.8c-4.7,0-7-2.7-7-7.4v-20.7h-3.5c-1.2,0-2.1-0.9-2.1-2.2c0-1.2,0.8-2.1,2.1-2.1h3.5v-6.7
	c0-1.2,1-2.4,2.6-2.4c1.2,0,2.4,1.1,2.4,2.4v6.7h4.7c1.2,0,2.1,0.9,2.1,2.2c0,1.2-0.9,2.1-2.1,2.1h-4.7v19.6c0,2.4,1,4.1,3.2,4.1
	c0.9,0,1.8-0.5,2.6-0.5c1.1,0,2.1,0.9,2.1,2C1073.5,171,1070.5,171.8,1067.7,171.8z"/>
<path class="st1" d="M1086.6,171.8c-4.7,0-7-2.7-7-7.4v-20.7h-3.5c-1.2,0-2.1-0.9-2.1-2.2c0-1.2,0.8-2.1,2.1-2.1h3.5v-6.7
	c0-1.2,1-2.4,2.6-2.4c1.2,0,2.4,1.1,2.4,2.4v6.7h4.7c1.2,0,2.1,0.9,2.1,2.2c0,1.2-0.9,2.1-2.1,2.1h-4.7v19.6c0,2.4,1,4.1,3.2,4.1
	c0.9,0,1.8-0.5,2.6-0.5c1.1,0,2.1,0.9,2.1,2C1092.4,171,1089.4,171.8,1086.6,171.8z"/>
<path class="st1" d="M1123.7,156.8h-22.8c0.3,6,4.6,10.9,11.4,10.9c3.1,0,6-0.9,8.5-2.9c0.3-0.2,0.7-0.3,1.1-0.3c0.9,0,2,0.8,2,2
	c0,0.7-0.3,1.2-0.7,1.6c-3.1,2.6-6.9,3.7-11.3,3.7c-9.4,0-16.1-6.7-16.1-16.6c0-9.2,6.5-16.5,15.6-16.5c7.8,0,13.1,5,14.6,12.2
	c0.2,1,0.5,2.2,0.5,3.3C1126.3,155.6,1125.2,156.8,1123.7,156.8z M1121.6,153.2c0-4.7-3.3-10.5-10.4-10.5c-6.7,0-10.1,5.7-10.3,10.5
	H1121.6z"/>
<path class="st1" d="M1145.6,143.8c-3.2,0.2-6.3,1.6-8.4,4.8v20.3c0,1.3-1.1,2.4-2.5,2.4h-0.1c-1.3-0.1-2.4-1.1-2.4-2.4v-27.6
	c0-1.2,1-2.4,2.5-2.4c1.2,0,2.4,1.1,2.4,2.4v3.1c2-2.5,5-5.6,8.7-5.6c1.2,0,2.2,1,2.2,2.3C1148.2,142.7,1147.1,143.8,1145.6,143.8z"
	/>
<path class="st0" d="M260.4,119.9c-0.9,22-8.7,45.5-25.7,66c-0.8,1-1.4,1.3-2.4,1.3c-1,0-1.7-0.4-2.6-1c-1.6-1.2-5.3-4.2-6.5-5.2
	c-1.1-0.9-1.7-1.7-1.7-2.8c0-1,0.5-2,1.2-3c11.3-16.3,17.4-30.1,19.7-45C247.3,127.9,255.4,123.3,260.4,119.9z M211,144
	c-5.5,2.1-11.3,4.2-17.3,6.3V212c0,2.2,1,3.3,2.9,3.3c0.7,0,1.4-0.1,2.4-0.5c2-0.9,7.5-3.8,9.6-5.3c2.1-1.5,2.4-2.7,2.4-5.7V144z
	 M157.2,161.3v61.3c0,2.1,1,3.3,3.3,3.3c2.4,0,7.3-1.1,10.3-2.1c2.5-0.8,3.3-2,3.3-4.4v-63C168.6,158.1,163,159.7,157.2,161.3z
	 M62.4,177.2v11.3c0,4,0.8,5.6,3.2,7.5c2.4,2,5.3,4.3,8.3,6.9c1.1,0.9,2.1,1.3,3,1.3c1.4,0,2.3-0.9,2.3-2.9V176
	C73.6,176.5,67.9,176.9,62.4,177.2z M122.7,169.5v34.7c0,2.5-1,3.4-3,3.4c-2.1,0-5.8-0.8-7.9-2c-2.5-1.5-3.1-2.9-3.1-6.1V172
	c-5.7,1-11.4,1.8-17,2.6l0,30.5c0,6.4,1.9,9.8,8,13.2c7.9,4.5,24.5,8.5,32.7,8.5c5,0,7.5-2.8,7.5-7.1v-54.2
	C134.1,167,128.4,168.3,122.7,169.5z M289.3,75.9c0,27.4-66.1,63-153.8,83.6c-27.3,6.4-58.5,11.5-83.3,11.5
	c-36.1,0-50.9-12.8-50.9-27.3c0-8.8,5.3-17.1,16.5-24.6c0.6-0.4,1.2-0.7,1.7-0.7c0.6,0,1,0.4,1,1c0,0.5-0.3,0.9-0.9,1.4
	c-8.8,6.9-13.2,14.1-13.2,21.6c0,10.2,11.2,21.3,45.1,21.3c3.3,0,6.9-0.1,10.9-0.3v-42H47c0.5,7.5,1.8,13.9,4.4,23.1
	c0.3,1,0.5,1.9,0.5,2.4c0,1.4-0.7,2.2-2.8,3c-2.5,0.9-4.8,1.7-7,2.5c-0.9,0.3-1.7,0.5-2.4,0.5c-1.6,0-2.5-0.9-3.2-2.7
	c-4.8-11.4-6.6-26-6.6-37.7c0-33.6,18-66.7,43.5-86c1.2-1,2.4-1.3,3.3-1.3c1.7,0,2.7,1.3,2.7,2.7v134.2c4-0.4,8.2-1,12.5-1.6v-24.4
	c0-3.1,1.2-4.2,4.5-4.2h8c3.3,0,4.4,1.1,4.4,4.2v21.7c4.6-0.8,9.2-1.7,13.9-2.7v-23c0-4.3-1.1-6-4.4-7.9c-3.3-2-9.9-5.9-14.5-8.6
	c-8.2-4.9-12-9.4-12-19.8V24.7c0-5.2,1.1-8.6,5.8-11.6c9.2-5.9,25.6-11.4,33.5-11.4c4.9,0,7,2.3,7,6.2v80.2c0,3.1-1,4.2-4.4,4.2
	h-8.2c-3.3,0-4.4-1.1-4.4-4.2V24.8c0-2.5-0.6-3.4-2.5-3.4c-1.5,0-4.4,1-6.7,2.4c-2.4,1.5-3,3.1-3,6.1v61.8c0,4.4,0.7,5.7,4.3,7.9
	c4.3,2.7,10.6,6.4,14.5,8.6c8.6,5,12,10,12,19.8v23c5.8-1.4,11.6-2.9,17.3-4.5V18.8c-2-0.3-5.9-0.7-9.9-1.1
	c-3.2-0.3-3.7-1.6-3.7-3.9V5.3c0-2.5,1.3-3.9,4.1-3.9c10.4,0,29,3.7,36.8,6.8c3.1,1.2,3.7,2.4,3.7,4.7v9.7c0,2.1-1.1,3-2.6,3
	c-0.7,0-1.4-0.2-3-0.7c-3.5-1.1-6.5-2.1-8.5-2.6v119.4c6.7-2.1,13.2-4.3,19.6-6.5v-120c0-1.8,1-3,2.6-3c1.8,0,2.7,1.4,4,4.3
	c4.9,11.4,16.7,38.6,26.1,60.3c3.4-9.4,7.5-20.9,8.4-23.4c0.6-1.8,1.5-2.7,2.9-2.7c1.1,0,1.9,0.5,3.2,2.1
	c10.7,14.7,17.3,31.3,19.1,51.2c15-9.9,24.1-19.8,24.1-28.4c0-8.5-8.1-15.7-27.6-16.7c-0.9,0-1.4-0.5-1.4-1.2c0-0.6,0.5-1.1,1.5-1.1
	C278.7,56.6,289.3,66.2,289.3,75.9z M62.4,104.5V61.3C53.7,73,48.2,89.2,46.9,104.5H62.4z M211,128.5c11.9-4.8,22.9-9.8,32.6-15
	c-0.1-12.1-1.8-20.6-5.2-27.5c-3.5,8.4-8.5,20.5-10,24c-0.5,1.3-1.3,2.1-2.3,2.1c-1,0-1.6-0.6-2.3-2c-1.1-2.1-7.8-16-12.8-26.5
	V128.5z"/>
<path class="st0" d="M260.4,119.9c-0.9,22-8.7,45.5-25.7,66c-0.8,1-1.4,1.3-2.4,1.3c-1,0-1.7-0.4-2.6-1c-1.6-1.2-5.3-4.2-6.5-5.2
	c-1.1-0.9-1.7-1.7-1.7-2.8c0-1,0.5-2,1.2-3c11.3-16.3,17.4-30.1,19.7-45C247.3,127.9,255.4,123.3,260.4,119.9z M211,144
	c-5.5,2.1-11.3,4.2-17.3,6.3V212c0,2.2,1,3.3,2.9,3.3c0.7,0,1.4-0.1,2.4-0.5c2-0.9,7.5-3.8,9.6-5.3c2.1-1.5,2.4-2.7,2.4-5.7V144z
	 M157.2,161.3v61.3c0,2.1,1,3.3,3.3,3.3c2.4,0,7.3-1.1,10.3-2.1c2.5-0.8,3.3-2,3.3-4.4v-63C168.6,158.1,163,159.7,157.2,161.3z
	 M62.4,177.2v11.3c0,4,0.8,5.6,3.2,7.5c2.4,2,5.3,4.3,8.3,6.9c1.1,0.9,2.1,1.3,3,1.3c1.4,0,2.3-0.9,2.3-2.9V176
	C73.6,176.5,67.9,176.9,62.4,177.2z M122.7,169.5v34.7c0,2.5-1,3.4-3,3.4c-2.1,0-5.8-0.8-7.9-2c-2.5-1.5-3.1-2.9-3.1-6.1V172
	c-5.7,1-11.4,1.8-17,2.6l0,30.5c0,6.4,1.9,9.8,8,13.2c7.9,4.5,24.5,8.5,32.7,8.5c5,0,7.5-2.8,7.5-7.1v-54.2
	C134.1,167,128.4,168.3,122.7,169.5z M289.3,75.9c0,27.4-66.1,63-153.8,83.6c-27.3,6.4-58.5,11.5-83.3,11.5
	c-36.1,0-50.9-12.8-50.9-27.3c0-8.8,5.3-17.1,16.5-24.6c0.6-0.4,1.2-0.7,1.7-0.7c0.6,0,1,0.4,1,1c0,0.5-0.3,0.9-0.9,1.4
	c-8.8,6.9-13.2,14.1-13.2,21.6c0,10.2,11.2,21.3,45.1,21.3c3.3,0,6.9-0.1,10.9-0.3v-42H47c0.5,7.5,1.8,13.9,4.4,23.1
	c0.3,1,0.5,1.9,0.5,2.4c0,1.4-0.7,2.2-2.8,3c-2.5,0.9-4.8,1.7-7,2.5c-0.9,0.3-1.7,0.5-2.4,0.5c-1.6,0-2.5-0.9-3.2-2.7
	c-4.8-11.4-6.6-26-6.6-37.7c0-33.6,18-66.7,43.5-86c1.2-1,2.4-1.3,3.3-1.3c1.7,0,2.7,1.3,2.7,2.7v134.2c4-0.4,8.2-1,12.5-1.6v-24.4
	c0-3.1,1.2-4.2,4.5-4.2h8c3.3,0,4.4,1.1,4.4,4.2v21.7c4.6-0.8,9.2-1.7,13.9-2.7v-23c0-4.3-1.1-6-4.4-7.9c-3.3-2-9.9-5.9-14.5-8.6
	c-8.2-4.9-12-9.4-12-19.8V24.7c0-5.2,1.1-8.6,5.8-11.6c9.2-5.9,25.6-11.4,33.5-11.4c4.9,0,7,2.3,7,6.2v80.2c0,3.1-1,4.2-4.4,4.2
	h-8.2c-3.3,0-4.4-1.1-4.4-4.2V24.8c0-2.5-0.6-3.4-2.5-3.4c-1.5,0-4.4,1-6.7,2.4c-2.4,1.5-3,3.1-3,6.1v61.8c0,4.4,0.7,5.7,4.3,7.9
	c4.3,2.7,10.6,6.4,14.5,8.6c8.6,5,12,10,12,19.8v23c5.8-1.4,11.6-2.9,17.3-4.5V18.8c-2-0.3-5.9-0.7-9.9-1.1
	c-3.2-0.3-3.7-1.6-3.7-3.9V5.3c0-2.5,1.3-3.9,4.1-3.9c10.4,0,29,3.7,36.8,6.8c3.1,1.2,3.7,2.4,3.7,4.7v9.7c0,2.1-1.1,3-2.6,3
	c-0.7,0-1.4-0.2-3-0.7c-3.5-1.1-6.5-2.1-8.5-2.6v119.4c6.7-2.1,13.2-4.3,19.6-6.5v-120c0-1.8,1-3,2.6-3c1.8,0,2.7,1.4,4,4.3
	c4.9,11.4,16.7,38.6,26.1,60.3c3.4-9.4,7.5-20.9,8.4-23.4c0.6-1.8,1.5-2.7,2.9-2.7c1.1,0,1.9,0.5,3.2,2.1
	c10.7,14.7,17.3,31.3,19.1,51.2c15-9.9,24.1-19.8,24.1-28.4c0-8.5-8.1-15.7-27.6-16.7c-0.9,0-1.4-0.5-1.4-1.2c0-0.6,0.5-1.1,1.5-1.1
	C278.7,56.6,289.3,66.2,289.3,75.9z M62.4,104.5V61.3C53.7,73,48.2,89.2,46.9,104.5H62.4z M211,128.5c11.9-4.8,22.9-9.8,32.6-15
	c-0.1-12.1-1.8-20.6-5.2-27.5c-3.5,8.4-8.5,20.5-10,24c-0.5,1.3-1.3,2.1-2.3,2.1c-1,0-1.6-0.6-2.3-2c-1.1-2.1-7.8-16-12.8-26.5
	V128.5z"/>
</svg>
