<?xml version="1.0" standalone="no"?>
<!DOCTYPE svg PUBLIC "-//W3C//DTD SVG 20010904//EN"
 "http://www.w3.org/TR/2001/REC-SVG-20010904/DTD/svg10.dtd">
<svg version="1.0" xmlns="http://www.w3.org/2000/svg"
 width="1280.000000pt" height="692.000000pt" viewBox="0 0 1280.000000 692.000000"
 preserveAspectRatio="xMidYMid meet">
<metadata>
Created by potrace 1.15, written by Peter Selinger 2001-2017
</metadata>
<g transform="translate(0.000000,692.000000) scale(0.100000,-0.100000)"
fill="#000000" stroke="none">
<path d="M1288 6870 c-136 -45 -196 -69 -174 -70 5 0 77 20 160 45 83 25 180
52 216 59 l65 14 -60 1 c-46 0 -95 -11 -207 -49z"/>
<path d="M1930 6910 c70 -10 206 -10 245 0 17 4 -40 8 -135 7 -118 0 -149 -2
-110 -7z"/>
<path d="M2525 6883 c-94 -84 -245 -124 -392 -103 -43 5 -141 25 -218 42 -125
29 -157 32 -290 32 -140 -1 -159 -3 -285 -36 -314 -84 -447 -138 -520 -211
-51 -50 -52 -70 -3 -26 55 48 175 100 373 162 248 78 314 90 474 85 110 -4
156 -11 286 -44 141 -35 167 -39 285 -39 120 0 134 2 188 27 53 25 167 120
167 139 0 18 -26 7 -65 -28z"/>
<path d="M2635 6879 c-74 -106 -203 -189 -329 -210 -86 -14 -160 -8 -350 32
-184 37 -320 41 -436 10 -72 -19 -175 -59 -168 -66 2 -2 44 11 93 28 78 26
107 31 220 35 116 3 147 0 290 -29 313 -62 454 -37 609 110 66 64 122 131 108
131 -5 0 -22 -18 -37 -41z"/>
<path d="M3973 6868 c-22 -29 -81 -98 -132 -153 -116 -125 -150 -177 -217
-326 -61 -136 -101 -202 -168 -276 -53 -59 -49 -68 10 -25 77 56 130 128 205
280 76 152 123 220 238 351 72 82 151 184 151 194 0 4 -11 7 -24 7 -17 0 -35
-15 -63 -52z"/>
<path d="M4020 6783 c-66 -76 -120 -142 -120 -147 0 -11 116 94 220 198 84 86
85 86 52 86 -28 0 -44 -14 -152 -137z"/>
<path d="M4390 6863 c-30 -31 -114 -113 -187 -182 -150 -144 -208 -226 -324
-454 -129 -255 -231 -383 -351 -440 -37 -18 -67 -35 -67 -38 -1 -10 87 9 133
30 103 45 214 190 343 446 137 271 197 356 336 471 100 83 182 160 208 197
l20 27 -28 0 c-21 0 -42 -15 -83 -57z"/>
<path d="M4617 6865 c-42 -61 -112 -117 -239 -194 -102 -61 -187 -128 -213
-168 -21 -32 -26 -34 71 39 27 21 102 66 167 100 144 76 216 133 274 216 l45
62 -34 0 c-29 -1 -38 -8 -71 -55z"/>
<path d="M4821 6873 c-58 -120 -144 -222 -291 -346 -57 -48 -18 -30 78 36 92
63 175 153 229 248 59 103 60 109 31 109 -19 0 -29 -10 -47 -47z"/>
<path d="M5023 6822 c-81 -126 -190 -250 -299 -337 -160 -128 -167 -140 -34
-52 102 67 301 270 371 377 77 117 74 110 47 110 -18 -1 -36 -21 -85 -98z"/>
<path d="M5115 6807 c-56 -90 -139 -208 -238 -334 -6 -9 -6 -13 1 -13 21 0
175 187 256 310 107 162 101 150 74 150 -18 -1 -37 -24 -93 -113z"/>
<path d="M5824 6880 c57 -63 106 -143 142 -232 36 -89 46 -87 15 3 -43 127
-135 269 -172 269 -19 0 -17 -4 15 -40z"/>
<path d="M5925 6869 c46 -71 141 -282 161 -359 13 -50 15 -93 12 -185 -3 -82
-2 -111 4 -90 5 17 12 90 15 163 6 149 -1 180 -80 337 -61 122 -104 185 -126
185 -18 0 -16 -5 14 -51z"/>
<path d="M6060 6917 c0 -3 25 -56 54 -118 30 -63 66 -148 80 -189 15 -47 25
-65 25 -49 2 62 -114 352 -143 357 -9 2 -16 1 -16 -1z"/>
<path d="M6189 6801 c69 -137 96 -210 115 -318 l14 -78 3 50 c5 103 -15 172
-98 348 -42 87 -61 117 -75 117 -15 0 -9 -18 41 -119z"/>
<path d="M6273 6909 c3 -8 23 -57 45 -109 23 -52 51 -135 64 -185 21 -84 23
-87 26 -48 4 52 -17 133 -66 253 -26 65 -44 96 -57 99 -12 2 -16 -1 -12 -10z"/>
<path d="M6396 6883 c53 -120 83 -224 99 -346 3 -26 10 -45 15 -42 5 3 11 -5
13 -17 3 -16 5 -12 6 12 2 72 -29 231 -66 329 -32 88 -40 101 -60 101 -23 0
-23 0 -7 -37z"/>
<path d="M6565 6868 c8 -29 21 -109 31 -178 9 -69 20 -134 24 -145 7 -18 9
-17 15 9 9 33 0 323 -10 349 -5 11 -18 17 -40 17 l-33 0 13 -52z"/>
<path d="M7166 6886 c34 -18 93 -54 130 -80 l69 -47 -45 41 c-92 85 -145 120
-181 120 -33 0 -33 -1 27 -34z"/>
<path d="M7368 6828 c88 -83 226 -193 273 -219 37 -19 18 -1 -53 52 -40 30
-121 100 -180 156 -58 57 -113 103 -122 103 -9 0 28 -41 82 -92z"/>
<path d="M9642 6908 c3 -7 15 -15 29 -18 27 -6 59 -60 59 -100 0 -43 -45 -125
-91 -164 -66 -56 -167 -102 -276 -126 -221 -47 -303 -70 -407 -111 -142 -56
-309 -140 -315 -158 -8 -27 69 -3 218 68 176 84 266 114 431 141 69 11 158 30
198 40 151 41 273 124 317 215 22 47 31 158 16 198 -10 27 -12 27 -97 27 -63
0 -85 -3 -82 -12z"/>
<path d="M9867 6893 c5 -16 8 -60 7 -99 0 -56 -6 -83 -27 -126 -69 -140 -218
-213 -531 -258 -139 -20 -198 -35 -95 -25 29 3 115 10 189 15 296 23 405 53
491 139 74 74 101 144 103 261 1 118 0 120 -79 120 l-65 0 7 -27z"/>
<path d="M10104 6874 c3 -26 6 -72 7 -103 1 -70 7 -57 17 37 4 40 11 74 16 75
32 8 52 -205 34 -353 l-6 -55 14 55 c19 70 29 237 20 323 l-8 67 -50 0 -51 0
7 -46z"/>
<path d="M10276 6868 c16 -63 18 -182 4 -294 -15 -121 -17 -281 -4 -294 19
-19 50 24 85 119 74 204 95 353 66 466 l-13 50 -76 3 -76 3 14 -53z"/>
<path d="M10460 6913 c0 -5 7 -42 16 -83 20 -96 14 -150 -42 -403 -61 -275
-58 -341 17 -416 89 -89 216 -105 327 -40 81 48 346 316 415 421 60 91 151
269 216 420 22 53 41 99 41 102 0 4 -17 6 -38 6 -37 0 -39 -2 -65 -57 -14 -32
-35 -89 -46 -128 -23 -79 -92 -218 -153 -308 -55 -82 -249 -276 -318 -319
-121 -76 -203 -78 -277 -6 -63 61 -64 166 -3 486 11 57 20 127 20 156 0 84 11
146 26 146 7 0 23 -10 34 -22 l21 -23 -7 30 c-4 17 -9 33 -11 38 -2 4 -42 7
-89 7 -46 0 -84 -3 -84 -7z"/>
<path d="M11368 6637 c-76 -155 -130 -271 -119 -258 16 21 291 509 299 532 2
5 -7 9 -20 9 -20 0 -39 -33 -160 -283z"/>
<path d="M5495 6878 c-72 -26 -157 -104 -296 -273 -98 -120 -102 -125 -96
-125 3 0 62 62 131 138 138 152 215 216 303 249 55 21 56 22 23 22 -19 0 -48
-5 -65 -11z"/>
<path d="M5534 6816 c-23 -7 -61 -27 -86 -44 -116 -80 -391 -419 -376 -464 2
-5 61 57 130 139 219 258 334 353 431 353 41 0 50 14 15 24 -34 9 -68 6 -114
-8z"/>
<path d="M2712 6665 c-57 -46 -134 -99 -172 -119 -72 -38 -96 -46 -64 -20 19
15 19 15 -1 10 -205 -54 -343 -47 -515 24 -139 58 -219 73 -354 67 -95 -3
-136 -10 -193 -30 -185 -65 -328 -169 -379 -274 -50 -102 -34 -243 41 -345 40
-55 134 -105 205 -110 39 -3 45 0 45 17 0 17 8 20 55 23 30 1 125 17 210 34
131 27 178 32 305 32 161 1 245 -12 485 -75 474 -123 750 -153 980 -104 206
43 313 145 487 465 43 80 88 158 98 175 11 16 14 26 7 21 -7 -4 -65 -86 -129
-183 -140 -211 -225 -303 -330 -355 -137 -69 -355 -86 -488 -40 -33 12 -163
54 -290 93 l-230 72 -215 9 c-334 15 -421 8 -640 -47 -283 -71 -388 -65 -479
26 -48 48 -71 103 -71 175 0 124 86 226 265 315 204 101 372 103 589 7 206
-91 237 -101 327 -106 139 -7 253 36 393 148 70 57 174 166 165 174 -2 2 -50
-34 -107 -79z"/>
<path d="M6926 6686 c-56 -21 -87 -46 -119 -97 -26 -42 -28 -53 -31 -185 l-5
-139 15 82 c26 156 72 218 185 253 79 25 114 23 203 -11 71 -26 402 -244 472
-311 30 -28 57 -48 60 -45 29 29 -447 386 -580 436 -77 29 -151 35 -200 17z"/>
<path d="M5531 6649 c-133 -76 -313 -320 -289 -391 3 -7 14 8 26 34 69 155
228 298 332 298 84 0 129 -64 137 -195 10 -156 -38 -267 -137 -318 -50 -26
-62 -28 -135 -24 -67 3 -91 9 -145 38 -36 19 -68 35 -72 37 -5 2 -8 -8 -8 -23
0 -46 64 -100 135 -115 132 -27 272 6 341 82 46 52 69 108 94 227 33 164 27
222 -31 307 -55 80 -153 97 -248 43z"/>
<path d="M11744 6601 c-72 -41 -128 -109 -207 -248 -93 -162 -150 -236 -269
-345 -168 -156 -228 -253 -290 -469 -28 -99 -33 -129 -33 -231 0 -73 4 -121
11 -128 8 -8 12 6 13 54 2 86 23 186 67 316 66 191 100 245 269 420 148 153
162 171 261 339 57 97 102 159 162 221 105 112 107 123 16 71z"/>
<path d="M832 6525 c-31 -23 -68 -90 -88 -165 -14 -49 -18 -103 -19 -220 0
-149 1 -157 27 -206 69 -131 262 -223 468 -224 83 0 171 13 395 60 83 17 197
34 254 37 80 5 99 8 80 16 -35 13 -210 0 -394 -30 -99 -16 -200 -26 -265 -26
-93 0 -116 3 -200 33 -143 49 -204 99 -250 204 -49 110 -47 334 4 470 26 69
25 76 -12 51z"/>
<path d="M2924 6497 c-107 -79 -194 -190 -194 -247 0 -131 290 -249 485 -196
160 42 251 132 357 353 32 68 58 125 58 128 0 21 -51 -32 -123 -128 -95 -127
-146 -175 -227 -215 -161 -79 -381 25 -355 168 4 19 22 63 41 98 53 98 46 104
-42 39z"/>
<path d="M10070 6479 c-146 -216 -200 -240 -585 -259 -265 -13 -307 -20 -410
-71 -88 -43 -369 -249 -394 -289 -11 -17 -1 -12 31 17 61 55 308 219 374 249
82 36 162 47 263 35 220 -27 436 -113 406 -162 -4 -5 -48 -44 -100 -88 -116
-96 -162 -150 -272 -315 -106 -157 -170 -229 -237 -264 -45 -24 -62 -27 -146
-27 -85 0 -101 3 -155 29 -71 35 -137 94 -172 153 -32 55 -42 48 -19 -12 40
-105 157 -206 283 -245 130 -40 249 -15 390 82 23 15 87 83 142 151 109 134
155 176 234 212 105 49 271 52 418 9 129 -38 258 -130 246 -176 -3 -11 3 -34
14 -51 47 -79 16 -151 -133 -304 l-113 -117 104 92 c95 84 131 107 131 84 0
-14 -58 -92 -104 -141 -46 -50 -33 -43 80 45 233 179 317 214 384 158 57 -49
171 -314 215 -504 33 -145 10 -290 -63 -385 -21 -27 -81 -86 -134 -130 -152
-127 -198 -192 -240 -342 -15 -54 -22 -108 -22 -175 -2 -162 35 -148 68 25 8
39 26 106 41 147 47 130 91 190 209 284 46 35 99 83 119 105 124 138 156 369
78 571 -48 123 -91 288 -98 371 -7 93 7 179 54 324 67 208 113 279 297 460
111 108 181 196 215 265 10 21 8 20 -11 -5 -46 -61 -146 -160 -238 -236 -145
-119 -171 -144 -285 -279 -59 -69 -125 -138 -148 -153 -57 -39 -109 -34 -213
21 -211 109 -377 200 -421 231 -26 19 -84 52 -128 74 -136 66 -141 78 -61 176
93 115 127 189 151 321 19 107 7 117 -45 39z"/>
<path d="M10625 6516 c-22 -34 -45 -150 -45 -232 0 -78 22 -126 70 -152 34
-17 98 -10 157 19 82 39 289 264 320 346 4 11 -8 5 -33 -18 -96 -86 -195 -138
-261 -139 -52 0 -91 36 -118 107 -17 47 -50 93 -67 93 -4 0 -14 -11 -23 -24z"/>
<path d="M1295 6474 c-60 -40 -134 -114 -156 -156 -63 -122 -13 -264 113 -318
78 -34 186 -25 403 34 282 77 279 82 -10 24 -82 -16 -185 -30 -227 -30 -67 -1
-85 3 -135 28 -49 25 -62 37 -86 84 -51 99 -25 193 85 300 34 33 59 60 57 60
-2 0 -22 -12 -44 -26z"/>
<path d="M1 6328 c-1 -44 14 -133 45 -270 57 -252 74 -305 130 -395 60 -97 71
-126 99 -263 13 -65 43 -187 65 -272 29 -107 43 -183 47 -253 4 -72 10 -103
21 -111 21 -15 11 -127 -16 -180 -11 -22 -53 -76 -93 -120 -166 -182 -210
-305 -254 -719 -9 -77 -22 -165 -31 -195 -9 -31 -14 -72 -12 -91 l3 -34 24 44
c38 73 49 115 71 272 37 264 85 413 164 505 20 23 83 74 140 113 108 74 144
108 176 171 29 57 42 162 34 260 -5 47 -10 74 -12 60 -2 -14 -7 -29 -12 -34
-9 -9 -15 11 -43 134 l-15 65 6 -80 c21 -247 2 -347 -82 -430 -50 -50 -141
-108 -158 -103 -5 2 13 32 41 67 69 86 86 116 107 186 25 82 23 223 -6 410
-25 169 -24 292 5 430 23 104 17 208 -14 262 -45 75 -106 140 -159 168 -107
56 -198 202 -252 401 l-19 69 0 -67z"/>
<path d="M4163 6258 c-148 -207 -368 -491 -412 -530 -54 -49 -126 -82 -221
-101 -76 -15 -473 -16 -491 0 -24 19 -278 90 -480 133 -107 22 -204 43 -216
46 -36 7 -26 -9 17 -30 22 -11 38 -21 36 -24 -3 -2 -107 6 -232 19 -270 27
-351 22 -634 -37 -157 -33 -191 -37 -325 -37 -132 0 -161 3 -245 26 -52 15
-130 35 -174 44 -87 18 -102 15 -125 -32 -22 -45 -6 -58 90 -71 46 -7 140 -22
209 -34 110 -20 147 -22 310 -16 102 3 219 12 260 20 l75 15 -135 -6 c-74 -3
-132 -2 -129 1 9 10 351 63 454 71 53 4 129 2 185 -4 148 -18 573 -98 700
-133 63 -17 137 -32 164 -34 26 -3 87 -11 133 -19 108 -19 184 -19 392 0 259
24 333 50 429 148 46 48 180 250 325 492 33 55 66 110 75 123 29 45 1 20 -35
-30z"/>
<path d="M10142 6189 c-37 -76 -58 -85 -55 -23 l1 39 -15 -35 c-25 -55 -29
-125 -8 -156 15 -23 18 -24 29 -9 11 16 16 15 62 -13 123 -76 337 -143 448
-141 l71 2 -70 8 c-200 25 -393 128 -426 226 -7 22 -9 63 -6 105 3 37 5 68 4
67 -1 0 -17 -32 -35 -70z"/>
<path d="M7147 6209 c-28 -16 -50 -68 -44 -106 14 -83 89 -143 179 -143 50 0
101 32 113 71 16 50 -51 142 -127 174 -43 17 -95 19 -121 4z"/>
<path d="M6081 6184 c0 -11 3 -14 6 -6 3 7 2 16 -1 19 -3 4 -6 -2 -5 -13z"/>
<path d="M8965 6143 c-27 -14 -102 -62 -165 -106 -221 -154 -255 -205 -254
-377 0 -84 5 -116 23 -162 48 -123 161 -237 296 -298 172 -78 356 -70 539 22
41 21 61 26 66 18 4 -7 24 16 51 57 77 121 151 214 202 254 56 45 45 50 -33
13 -43 -19 -88 -58 -200 -174 -150 -153 -186 -179 -287 -205 -266 -69 -577
120 -634 386 -27 126 6 253 88 330 39 37 237 180 328 237 60 38 49 41 -20 5z"/>
<path d="M8327 6088 c-57 -97 -71 -161 -71 -318 0 -236 51 -416 158 -558 84
-110 305 -304 445 -389 197 -119 221 -143 221 -216 0 -57 -31 -108 -136 -220
-153 -163 -252 -303 -229 -324 10 -9 23 5 61 65 30 47 104 134 191 224 151
154 182 202 183 274 0 73 -28 100 -199 189 -84 44 -189 107 -234 140 -108 81
-284 257 -325 326 -123 210 -151 596 -58 791 31 65 27 74 -7 16z"/>
<path d="M9140 6116 c-101 -38 -376 -212 -435 -277 -26 -29 -27 -31 -5 -16 14
10 90 50 170 88 80 39 176 86 214 105 111 55 228 44 269 -25 22 -37 21 -55 -2
-105 -10 -23 -25 -65 -31 -95 -14 -58 -69 -199 -115 -293 -29 -60 -81 -117
-130 -142 -16 -9 -23 -16 -14 -16 38 0 122 55 169 111 74 89 322 469 334 511
13 48 -8 79 -74 113 -103 52 -267 71 -350 41z"/>
<path d="M1 5635 l-1 -471 35 -13 c46 -16 102 -72 124 -125 10 -22 21 -77 25
-121 9 -105 -6 -151 -84 -270 -91 -139 -100 -168 -100 -338 l1 -142 32 85 c47
123 79 173 180 279 108 113 137 169 144 280 12 167 -71 421 -240 736 -51 97
-63 146 -82 335 -29 280 -33 251 -34 -235z"/>
<path d="M6001 6023 c-32 -92 -109 -181 -193 -224 -74 -38 -136 -49 -348 -60
-113 -7 -209 -15 -213 -19 -15 -13 353 -22 433 -10 97 14 188 57 249 118 46
46 86 103 62 88 -15 -10 -14 3 9 69 11 33 19 63 17 68 -1 5 -8 -9 -16 -30z"/>
<path d="M4338 5928 c-57 -68 -153 -183 -213 -256 -60 -73 -129 -152 -154
-174 -93 -83 -230 -130 -416 -142 -49 -4 -172 -14 -273 -22 -228 -20 -265 -15
-411 60 -135 69 -217 102 -311 126 -118 30 -502 111 -512 108 -5 -2 82 -32
192 -68 109 -36 200 -68 200 -72 0 -19 -185 -7 -312 19 -112 23 -158 28 -288
27 -143 0 -173 -3 -397 -47 -394 -77 -487 -112 -566 -213 -78 -101 -93 -218
-73 -589 11 -203 3 -259 -56 -417 -32 -84 -39 -114 -31 -126 14 -22 40 -27 60
-10 23 19 71 127 88 201 19 80 19 251 0 392 -29 221 -14 339 56 441 85 125
285 187 604 188 169 1 183 0 223 -22 122 -65 110 -178 -52 -498 -63 -123 -99
-210 -142 -342 -63 -198 -89 -256 -139 -310 -84 -94 -179 -117 -446 -110
l-189 6 -25 -29 c-23 -28 -49 -98 -40 -107 2 -3 53 0 112 7 59 6 185 16 278
21 346 20 397 63 555 469 72 184 164 341 199 335 3 -1 15 11 26 25 82 110 177
195 257 231 67 31 170 27 238 -7 77 -40 76 -53 -2 -53 -128 0 -228 -40 -322
-129 -152 -144 -223 -323 -296 -754 -39 -227 -62 -298 -115 -353 -47 -49 -70
-57 -249 -79 -214 -27 -343 -68 -463 -146 -72 -47 -84 -62 -20 -25 23 14 85
39 137 57 81 27 114 33 221 37 142 5 218 -10 279 -56 42 -32 45 -35 121 -144
108 -155 315 -328 393 -328 22 0 38 10 63 40 45 52 91 64 207 56 120 -9 222
-30 333 -67 51 -17 98 -29 104 -27 24 8 -46 69 -215 187 -194 136 -248 188
-356 341 -41 57 -115 147 -165 200 -103 107 -129 157 -140 276 -13 134 39 385
102 494 122 208 308 251 585 135 100 -42 224 -113 318 -183 l75 -55 -75 77
c-83 85 -76 98 19 36 109 -71 326 -294 563 -581 107 -129 168 -181 343 -292
66 -41 167 -115 225 -163 101 -84 203 -144 245 -144 11 0 -4 11 -34 25 -40 19
-86 58 -175 149 -77 77 -160 150 -226 196 -151 106 -226 182 -373 380 -71 96
-181 238 -242 315 -136 169 -225 292 -225 311 0 28 26 12 89 -53 36 -38 61
-61 56 -53 -5 8 -24 39 -43 69 -45 70 -87 165 -96 214 -15 83 36 147 171 216
105 52 188 77 365 106 198 33 259 50 341 92 102 54 160 119 324 365 165 246
225 338 219 338 -2 0 -50 -55 -108 -122z m-2523 -499 c33 -6 79 -20 100 -32
44 -25 85 -79 85 -111 0 -32 -52 -135 -121 -238 -76 -115 -89 -129 -54 -58
107 213 103 313 -15 373 -64 32 -203 49 -335 41 -105 -6 -83 4 47 20 131 17
215 19 293 5z m643 -534 c60 -14 180 -70 170 -80 -2 -3 -51 10 -109 27 -89 27
-120 32 -214 32 -92 0 -118 -4 -157 -22 -57 -25 -62 -22 -12 8 81 51 198 63
322 35z"/>
<path d="M4111 5940 c-22 -23 -81 -101 -131 -175 -131 -192 -182 -234 -340
-281 l-75 -23 57 0 c122 -2 249 63 331 167 58 74 193 280 206 315 16 43 -5 41
-48 -3z"/>
<path d="M5770 5918 c-86 -59 -153 -72 -345 -64 -88 3 -212 14 -275 25 -119
19 -149 15 -108 -13 53 -38 221 -66 393 -66 177 0 285 33 359 109 22 23 38 42
35 44 -2 2 -29 -14 -59 -35z"/>
<path d="M6870 5943 c0 -5 16 -36 36 -69 20 -32 44 -72 52 -88 32 -62 219
-151 372 -176 127 -21 246 1 344 66 49 33 33 43 -23 14 -111 -56 -236 -61
-397 -14 -175 50 -275 113 -344 216 -22 33 -40 56 -40 51z"/>
<path d="M6181 5727 c-25 -54 -129 -164 -208 -218 -48 -33 -137 -59 -203 -59
-25 0 -92 7 -150 15 -124 17 -316 20 -325 5 -4 -7 2 -9 18 -5 37 10 189 -11
336 -45 136 -32 237 -38 306 -19 49 14 111 77 167 172 37 62 93 195 86 203 -2
2 -14 -20 -27 -49z"/>
<path d="M7916 5735 c-12 -65 -52 -141 -102 -195 -26 -27 -43 -50 -38 -50 21
0 86 66 108 109 26 51 50 143 44 163 -3 7 -8 -5 -12 -27z"/>
<path d="M6700 5747 c0 -5 19 -46 42 -90 59 -114 169 -228 246 -258 123 -46
510 -140 568 -138 11 0 -36 15 -102 34 -249 69 -435 152 -559 249 -96 75 -131
110 -165 164 -16 26 -30 43 -30 39z"/>
<path d="M11481 5714 c-30 -8 -69 -23 -86 -34 -62 -38 -135 -127 -178 -217
-38 -79 -42 -97 -46 -176 -5 -149 28 -288 140 -573 67 -170 99 -222 155 -249
50 -25 174 -31 271 -15 111 19 96 42 -52 75 -126 29 -181 77 -244 217 -15 35
-34 81 -40 103 -7 22 -30 74 -51 115 -58 115 -73 177 -68 289 3 82 8 106 35
162 57 121 141 189 235 189 84 0 140 -71 158 -202 15 -100 58 -281 78 -326
l17 -37 3 49 c4 64 -25 342 -45 431 -17 78 -35 119 -67 153 -48 53 -128 70
-215 46z"/>
<path d="M6460 5602 c0 -26 -19 -30 -21 -4 -4 53 -19 -101 -21 -208 -1 -96 2
-137 16 -177 31 -93 121 -154 272 -183 50 -9 623 -32 632 -25 5 4 -145 23
-318 40 -265 26 -386 61 -456 130 -58 58 -74 113 -85 290 -5 82 -12 151 -14
154 -3 2 -5 -5 -5 -17z"/>
<path d="M1635 5586 c-157 -24 -397 -54 -487 -61 -49 -4 -88 -11 -88 -15 0 -5
-29 -18 -63 -29 -145 -49 -226 -126 -269 -255 -21 -66 -23 -86 -21 -266 1
-107 6 -217 11 -245 l10 -50 1 40 c1 22 6 47 11 55 7 12 11 10 18 -10 6 -16 8
33 4 142 -8 248 21 354 120 443 71 64 150 90 457 151 354 69 455 84 582 84 74
0 100 3 92 11 -17 17 -274 20 -378 5z"/>
<path d="M5150 5565 c-208 -42 -311 -140 -355 -341 -13 -57 -16 -112 -14 -239
5 -221 24 -237 25 -22 2 245 41 367 146 462 100 90 226 118 513 114 317 -3
337 1 135 26 -149 18 -360 18 -450 0z"/>
<path d="M9988 5519 c-115 -27 -243 -127 -329 -259 -79 -120 -59 -129 62 -24
139 121 273 163 371 115 56 -27 72 -53 78 -131 l5 -65 57 54 c124 116 129 228
14 296 -37 22 -54 25 -132 24 -49 -1 -106 -5 -126 -10z"/>
<path d="M11462 5499 c-59 -29 -121 -126 -122 -189 0 -19 5 -14 24 25 44 94
137 157 211 143 36 -7 31 7 -9 26 -44 21 -52 20 -104 -5z"/>
<path d="M4300 5372 c-19 -10 -69 -37 -110 -60 -103 -56 -207 -96 -322 -122
-54 -12 -98 -25 -98 -28 0 -11 212 8 309 28 139 29 238 25 276 -10 38 -35 75
-115 125 -263 23 -71 43 -127 45 -125 9 9 -67 495 -84 533 -29 67 -75 82 -141
47z"/>
<path d="M9900 5284 c-77 -33 -112 -74 -220 -254 -43 -73 -55 -75 -300 -72
-350 4 -484 25 -647 102 -47 22 -88 38 -91 35 -8 -7 34 -49 95 -96 73 -57 177
-94 344 -124 227 -41 279 -76 279 -189 0 -120 -58 -212 -270 -431 -85 -88
-175 -190 -200 -225 l-44 -65 67 62 c37 34 129 114 205 176 156 130 218 194
362 372 111 138 168 188 259 230 69 32 75 43 11 20 -57 -20 -80 -19 -80 4 0
37 43 73 154 125 61 29 131 71 155 92 135 117 136 255 2 254 -25 -1 -62 -8
-81 -16z"/>
<path d="M1408 5280 c-279 -44 -414 -153 -463 -375 -22 -100 -22 -100 -41 -84
-13 11 -15 9 -10 -12 19 -83 39 -278 45 -420 5 -136 9 -170 24 -193 41 -62
185 -93 291 -62 138 40 187 106 270 359 40 122 81 222 133 324 91 178 113 239
113 311 0 109 -62 155 -215 158 -49 2 -116 -1 -147 -6z m107 -205 c46 -45 26
-123 -58 -226 -25 -31 -64 -65 -86 -76 -28 -14 -37 -23 -29 -31 24 -24 -23
-152 -57 -152 -18 0 -33 27 -41 77 -7 46 6 79 37 88 21 7 21 7 1 28 -32 35
-42 63 -42 112 0 81 46 146 130 184 63 29 115 27 145 -4z m-459 -226 c0 -156
-2 -188 -12 -174 -18 24 -44 145 -44 202 0 55 12 105 35 139 8 13 16 24 18 24
1 0 2 -86 3 -191z"/>
<path d="M5001 5255 c-108 -98 -143 -352 -71 -510 32 -68 186 -220 265 -262
104 -54 185 -63 313 -37 227 46 429 194 542 398 30 54 70 112 89 128 31 27 39
30 87 26 l54 -5 -69 33 c-78 38 -93 53 -95 93 -1 26 -3 28 -41 24 -32 -3 -73
10 -200 62 -88 36 -167 69 -175 72 -10 4 -12 3 -5 -5 6 -6 64 -37 130 -70 66
-33 139 -74 163 -91 38 -28 42 -35 42 -73 0 -24 -12 -72 -26 -108 -57 -147
-156 -245 -351 -349 -171 -92 -250 -109 -363 -75 -66 20 -119 53 -188 118
-115 109 -154 197 -155 351 0 114 16 174 68 245 17 25 35 51 39 58 14 24 -14
12 -53 -23z"/>
<path d="M6045 5268 c-35 -11 -79 -18 -107 -16 -64 4 -50 -9 18 -18 65 -8 122
6 149 36 22 24 18 24 -60 -2z"/>
<path d="M6907 5279 c19 -19 143 -48 273 -64 199 -24 462 -72 523 -95 159 -60
317 -218 377 -378 12 -30 34 -134 51 -231 33 -197 91 -457 111 -498 7 -15 19
-29 27 -31 12 -4 13 13 8 105 -4 91 -11 124 -37 189 -17 43 -53 163 -80 266
-53 201 -89 286 -163 379 -61 76 -204 182 -288 213 -70 26 -440 103 -657 136
-151 23 -160 24 -145 9z"/>
<path d="M5247 5263 c-113 -39 -180 -140 -180 -273 -1 -110 18 -135 26 -34 6
93 24 140 75 196 77 85 173 103 336 62 42 -10 25 9 -30 36 -63 29 -164 35
-227 13z"/>
<path d="M4641 5219 c-35 -163 -38 -390 -6 -514 21 -80 77 -192 117 -233 45
-45 323 -234 406 -276 143 -71 241 -75 567 -22 360 58 352 54 564 296 36 40
92 93 125 118 34 25 52 42 41 38 -45 -16 -132 -76 -231 -159 -157 -131 -209
-152 -473 -197 -68 -12 -130 -28 -137 -35 -21 -20 -144 -45 -226 -45 -145 0
-249 48 -445 204 -146 116 -189 164 -232 257 -48 102 -64 222 -59 437 3 100 3
182 2 182 -1 0 -7 -23 -13 -51z"/>
<path d="M650 5188 c-10 -39 -11 -92 -4 -208 5 -85 9 -211 9 -280 0 -106 -3
-132 -21 -171 -33 -72 -78 -114 -199 -189 -125 -77 -180 -132 -221 -218 -36
-76 -71 -222 -90 -371 -24 -197 -41 -256 -98 -330 -14 -19 -26 -44 -26 -55 0
-18 2 -18 26 5 80 74 115 160 144 354 50 322 113 442 290 545 96 55 152 113
181 187 24 57 24 63 24 420 0 200 -1 363 -2 363 0 0 -7 -23 -13 -52z"/>
<path d="M4025 5095 c-49 -8 -167 -21 -261 -30 -95 -8 -197 -22 -228 -30 -121
-32 -198 -90 -237 -181 -10 -24 -22 -44 -27 -44 -13 0 -32 47 -32 81 0 18 -4
28 -10 24 -17 -10 -11 -91 11 -150 11 -30 44 -87 73 -127 104 -144 345 -436
410 -495 73 -67 174 -124 313 -177 119 -45 218 -96 328 -167 83 -53 143 -84
151 -76 2 1 -20 22 -49 45 -29 23 -79 65 -112 93 -42 35 -124 82 -272 156
-190 94 -220 112 -288 175 -196 183 -354 531 -259 572 11 5 30 26 41 46 41 71
144 107 385 136 146 17 209 13 278 -17 89 -40 136 -100 211 -278 52 -121 100
-204 106 -184 2 6 -3 28 -11 48 -9 20 -39 114 -66 207 -82 275 -131 356 -228
377 -64 13 -109 13 -227 -4z"/>
<path d="M5470 5079 c3 -3 34 -32 69 -65 35 -32 57 -47 47 -33 -15 24 -73 75
-106 94 -8 4 -13 6 -10 4z"/>
<path d="M7764 4938 c158 -195 177 -258 196 -633 21 -441 54 -581 158 -688 84
-86 192 -123 308 -105 97 15 148 49 284 190 69 72 222 221 340 331 118 111
259 244 313 296 54 51 101 91 104 87 4 -3 -19 -43 -51 -89 -184 -264 -276
-399 -276 -404 0 -15 101 108 175 213 126 178 238 315 379 462 70 71 126 135
126 142 0 15 -27 6 -105 -33 -62 -31 -185 -149 -904 -869 -293 -293 -306 -303
-431 -303 -85 0 -142 21 -202 74 -34 30 -93 129 -83 139 2 2 25 -14 52 -36 49
-43 71 -48 36 -9 -61 66 -102 249 -133 592 -11 121 -25 252 -31 290 -26 163
-96 281 -213 359 -56 37 -75 34 -42 -6z"/>
<path d="M10380 4919 c-30 -18 -86 -57 -124 -88 -122 -99 -151 -120 -165 -121
-12 0 -12 3 -3 12 7 7 12 16 12 21 0 6 -30 -20 -67 -56 -38 -36 -126 -112
-198 -168 -244 -192 -319 -287 -466 -588 -49 -101 -98 -196 -110 -212 -11 -16
-17 -29 -12 -29 16 1 94 110 182 254 176 288 252 358 504 466 153 66 180 83
281 179 83 81 112 101 142 101 13 0 15 -6 10 -32 l-6 -32 22 21 c48 45 107 54
139 22 44 -44 -7 -128 -102 -169 -27 -11 -49 -25 -49 -30 0 -6 -33 -45 -74
-88 -114 -120 -143 -195 -153 -402 -5 -112 10 -336 23 -350 11 -10 22 27 38
126 24 146 71 317 103 375 37 68 120 158 217 234 157 122 209 200 210 310 0
33 -6 79 -13 103 -10 34 -16 42 -30 37 -10 -3 -24 1 -31 11 -8 8 -32 25 -54
36 -57 29 -141 21 -225 -21 -35 -18 -65 -30 -68 -28 -13 14 42 74 107 119 40
27 20 20 -40 -13z"/>
<path d="M6475 4930 c-110 -4 -219 -12 -243 -19 -54 -15 -97 -53 -189 -169
-87 -109 -167 -172 -308 -241 -168 -83 -326 -115 -454 -91 -34 6 -65 9 -68 7
-2 -3 26 -15 62 -27 59 -20 82 -22 184 -18 99 4 132 10 228 42 193 63 277 112
409 237 132 124 181 151 305 173 83 14 712 42 895 39 113 -2 195 -28 280 -88
127 -91 174 -175 199 -353 3 -24 2 -41 -3 -38 -5 3 -12 -61 -16 -142 -15 -332
-48 -473 -126 -549 -67 -66 -179 -65 -601 2 -215 35 -333 42 -419 25 -25 -4
-47 -6 -50 -4 -9 9 25 23 80 35 118 23 127 28 45 23 -160 -11 -257 -50 -385
-153 -41 -33 -78 -61 -83 -61 -4 0 -31 -19 -60 -43 -29 -23 -76 -53 -104 -65
-104 -45 -327 -78 -588 -87 -173 -6 -260 -13 -253 -21 12 -11 310 -36 524 -43
402 -15 445 -4 614 154 161 151 231 181 404 172 103 -5 176 -20 176 -37 0 -6
-30 -10 -67 -10 -84 0 -187 -22 -243 -50 -61 -31 -123 -92 -207 -203 -82 -108
-143 -159 -217 -182 -55 -17 -181 -19 -296 -5 -193 23 -708 35 -689 15 4 -3
307 -57 429 -75 100 -15 171 -33 316 -80 153 -50 277 -67 355 -51 85 18 140
58 209 153 90 124 129 168 166 186 19 8 36 13 38 11 3 -3 -5 -34 -18 -69 -24
-68 -41 -140 -32 -140 3 0 14 17 25 38 46 89 124 123 189 83 52 -33 58 -63 27
-147 -14 -39 -55 -119 -90 -179 -35 -59 -70 -124 -76 -143 -27 -83 15 -164
113 -217 30 -16 63 -36 72 -44 13 -11 20 -11 41 3 50 33 76 115 90 290 3 44
15 122 26 174 32 155 24 218 -37 298 -19 25 -33 48 -30 51 4 5 15 2 81 -22 45
-17 -71 60 -123 81 -62 25 -57 30 13 13 23 -6 51 -9 61 -7 31 6 -61 55 -136
72 -117 28 -214 15 -296 -40 l-39 -26 34 35 c79 83 221 106 411 67 218 -45
325 -117 350 -234 12 -58 5 -128 -34 -341 -9 -44 -15 -101 -16 -127 0 -36 -4
-48 -15 -48 -23 0 -20 -166 5 -264 28 -111 64 -171 149 -251 166 -156 208
-201 235 -257 15 -31 33 -59 38 -60 16 -6 23 -160 10 -198 -6 -17 -7 -28 -3
-25 19 11 34 110 28 184 -9 137 -44 201 -203 374 -146 158 -188 314 -149 557
25 151 90 327 174 470 21 36 53 107 71 158 50 141 46 140 237 62 86 -35 190
-72 232 -82 184 -44 375 -5 500 102 48 41 35 45 -24 8 -98 -61 -251 -96 -336
-77 -105 24 -222 103 -282 191 -81 119 -119 286 -147 638 -27 331 -67 435
-210 545 -83 64 -175 104 -272 120 -98 16 -596 24 -893 15z"/>
<path d="M0 4753 l0 -178 46 80 c25 44 52 97 60 119 14 38 14 38 -27 87 -79
95 -79 95 -79 -108z"/>
<path d="M1947 4819 c-66 -67 -128 -165 -166 -259 -12 -30 -46 -163 -75 -295
-30 -132 -63 -265 -75 -296 -48 -127 -123 -173 -346 -213 -193 -35 -231 -48
-348 -118 -203 -122 -306 -259 -315 -419 -5 -82 4 -169 17 -169 4 0 16 48 26
107 24 137 63 219 142 295 123 116 268 179 525 229 190 36 254 62 298 122 45
61 62 117 120 382 77 355 111 450 222 613 27 41 47 76 44 80 -4 3 -35 -23 -69
-59z"/>
<path d="M4050 4850 c0 -6 11 -10 24 -10 70 0 162 -72 208 -164 34 -67 68
-213 68 -294 0 -109 -49 -162 -151 -162 -69 0 -190 30 -258 65 -61 31 -65 20
-11 -29 52 -47 171 -106 313 -155 163 -56 191 -72 292 -171 96 -93 157 -131
243 -149 71 -15 119 -14 177 3 189 57 89 224 -233 390 -72 37 -151 85 -175
106 -50 44 -91 117 -141 247 -19 49 -48 117 -64 149 -35 69 -113 147 -163 162
-53 16 -129 23 -129 12z"/>
<path d="M9820 4850 c-8 -5 -10 -10 -5 -10 6 0 17 5 25 10 8 5 11 10 5 10 -5
0 -17 -5 -25 -10z"/>
<path d="M2239 4707 c-39 -15 -112 -67 -105 -74 3 -3 18 4 34 16 66 47 199 47
254 1 l23 -19 -37 -1 c-20 0 -60 -5 -88 -11 -161 -34 -241 -234 -166 -413 8
-19 57 -82 108 -138 101 -111 147 -168 169 -209 25 -46 207 -205 332 -290 172
-117 203 -144 297 -266 131 -170 217 -253 262 -253 17 0 15 7 -17 63 -85 145
-115 251 -95 327 22 81 99 78 277 -11 117 -58 211 -138 303 -258 57 -76 90
-111 90 -96 0 15 -83 160 -125 220 -42 59 -128 145 -300 300 -111 100 -153
156 -239 325 -109 213 -243 401 -359 505 -99 88 -234 181 -343 236 -87 44
-112 52 -170 55 -43 3 -83 -1 -105 -9z m682 -697 c64 -67 75 -170 18 -170 -35
0 -95 68 -102 117 -8 49 6 93 29 93 10 0 34 -18 55 -40z"/>
<path d="M6604 4630 c-143 -37 -215 -90 -358 -264 -130 -158 -170 -177 -441
-211 -71 -9 -170 -22 -220 -30 -98 -16 -265 -19 -332 -6 -51 10 -55 0 -10 -27
59 -36 110 -44 342 -51 209 -7 235 -10 283 -31 67 -29 92 -60 92 -115 0 -46
-34 -103 -85 -143 -76 -60 -247 -112 -470 -143 -81 -11 -158 -25 -173 -31
l-27 -11 30 -8 c17 -4 98 -12 180 -18 243 -16 452 11 584 76 34 16 94 64 158
125 118 114 170 142 289 159 91 13 280 5 393 -17 93 -17 115 -34 46 -34 -104
0 -70 -17 57 -28 168 -14 259 -4 345 38 100 49 159 137 183 270 55 304 -224
521 -665 519 -94 0 -150 -5 -201 -19z m351 -95 c80 -20 194 -77 226 -112 34
-37 69 -125 76 -190 11 -104 -54 -196 -161 -228 -62 -19 -417 -20 -485 -2 -51
14 -63 31 -29 42 19 6 12 9 -32 16 -30 5 -78 20 -107 34 -88 40 -102 103 -49
220 13 28 38 67 55 88 49 56 154 125 213 142 64 18 203 13 293 -10z"/>
<path d="M10906 4619 c-52 -164 -69 -185 -295 -345 -152 -108 -230 -212 -270
-366 -26 -97 -34 -161 -21 -153 5 3 10 14 10 23 0 29 49 172 82 239 42 86 123
171 242 255 175 123 235 195 256 306 8 44 6 71 -4 41z"/>
<path d="M3912 4588 c-19 -19 -14 -63 11 -86 72 -68 164 -33 122 47 -8 17 -24
35 -34 41 -27 14 -84 13 -99 -2z"/>
<path d="M12206 4565 c-3 -9 -6 -42 -6 -73 0 -153 -55 -197 -274 -222 -271
-32 -358 -47 -535 -91 -107 -27 -199 -53 -205 -59 -12 -12 -9 -11 184 25 283
54 379 66 604 76 127 6 249 8 272 4 51 -7 65 -23 139 -150 121 -209 405 -580
413 -540 2 10 -15 37 -41 64 -78 79 -214 270 -267 373 -70 138 -67 202 13 254
45 28 203 90 255 99 23 4 42 10 42 14 0 10 -46 5 -243 -26 -227 -35 -229 -33
-276 155 -23 90 -30 107 -48 110 -12 2 -23 -4 -27 -13z"/>
<path d="M9743 4244 c-73 -36 -156 -129 -258 -290 -175 -278 -220 -325 -413
-429 -59 -32 -154 -88 -212 -125 -144 -91 -186 -114 -255 -140 -163 -60 -395
-67 -499 -14 -43 21 -192 30 -242 14 -44 -15 -131 -73 -115 -78 5 -2 33 4 62
12 67 20 137 20 302 0 220 -27 395 -5 552 70 39 18 124 67 190 108 66 41 168
100 226 131 141 75 209 127 304 231 44 48 81 82 83 77 4 -11 -31 -81 -61 -126
l-21 -30 24 20 c50 43 143 172 187 259 56 112 89 162 165 248 82 93 77 110
-19 62z"/>
<path d="M8135 4158 c20 -227 64 -336 150 -378 55 -27 104 -19 152 23 33 29
69 84 60 93 -2 2 -25 -8 -51 -22 -60 -33 -114 -29 -158 13 -46 44 -64 83 -118
271 -11 39 -25 72 -31 72 -7 0 -8 -26 -4 -72z"/>
<path d="M11476 3994 c-81 -16 -193 -67 -253 -115 -52 -42 -137 -147 -164
-203 l-20 -41 33 40 c137 165 191 213 295 262 39 19 111 43 160 53 50 11 73
18 53 18 -19 0 -66 -6 -104 -14z"/>
<path d="M12786 3968 c-8 -32 -6 -99 4 -123 6 -13 9 7 9 63 1 84 -2 99 -13 60z"/>
<path d="M9815 3948 c-38 -21 -77 -64 -136 -149 -33 -48 -90 -122 -128 -165
-38 -44 -67 -81 -66 -83 6 -6 94 48 189 116 131 94 165 96 210 13 35 -64 47
-183 23 -221 -15 -25 -25 -75 -52 -284 -9 -66 -30 -190 -47 -275 -23 -119 -31
-190 -33 -305 l-4 -150 14 137 c7 75 31 224 53 330 22 106 50 254 62 328 12
74 31 158 42 185 16 36 23 79 26 156 7 168 -28 314 -86 359 -28 23 -39 24 -67
8z"/>
<path d="M11452 3931 c-110 -38 -206 -129 -270 -256 -24 -48 -56 -154 -49
-162 3 -3 20 24 38 58 87 175 182 278 312 339 66 32 76 39 52 39 -16 0 -54 -8
-83 -18z"/>
<path d="M2130 3932 c0 -5 33 -54 73 -110 39 -55 89 -127 109 -160 49 -80 166
-176 321 -266 l49 -28 -18 26 c-9 15 -14 29 -11 32 11 12 142 -57 214 -112 39
-30 113 -102 164 -160 51 -58 129 -140 174 -182 78 -74 102 -90 327 -212 63
-34 113 -74 205 -162 68 -65 125 -118 128 -118 13 0 -106 160 -158 211 -46 46
-88 73 -205 133 -181 91 -245 138 -342 247 -182 203 -254 264 -514 428 -59 37
-130 98 -233 201 -154 153 -283 258 -283 232z"/>
<path d="M3890 3930 c0 -4 46 -41 103 -81 62 -44 146 -118 217 -190 90 -93
128 -124 175 -146 l60 -28 500 -6 c465 -6 591 -11 655 -26 l25 -6 -30 -8 c-16
-5 -118 -14 -225 -19 -374 -19 -560 -40 -820 -91 -249 -49 -355 -35 -498 69
-192 138 -202 138 -99 1 110 -145 172 -188 297 -208 77 -12 138 -5 306 38 244
62 387 73 664 53 164 -12 389 -38 398 -46 9 -10 -99 -16 -363 -20 -382 -5
-474 -26 -683 -155 -169 -103 -168 -103 -352 -125 -69 -9 -148 -23 -177 -31
-90 -27 -126 -94 -104 -195 20 -92 72 -163 159 -218 76 -48 153 -70 407 -113
301 -52 475 -60 706 -34 172 19 271 16 371 -14 67 -20 174 -44 273 -60 33 -6
149 -15 258 -21 109 -6 231 -17 270 -24 40 -8 73 -13 75 -11 6 6 -94 35 -169
49 -41 8 -144 22 -229 31 -98 10 -218 31 -325 57 -203 49 -315 57 -495 37
-170 -19 -350 -17 -420 4 -49 15 -300 58 -501 86 -111 15 -183 45 -239 100
-60 57 -78 112 -56 165 26 63 93 88 276 101 130 10 176 26 286 106 152 108
222 140 362 164 49 8 64 13 42 14 -35 1 -148 -15 -182 -25 -38 -11 -16 14 25
30 134 51 325 64 697 47 563 -26 589 -26 652 -2 31 12 75 36 97 54 38 29 244
287 236 295 -9 9 -74 -37 -152 -108 -96 -87 -161 -125 -241 -140 -54 -10 -808
3 -820 14 -3 3 12 7 34 8 88 3 -156 16 -346 18 -142 1 -196 5 -175 11 70 21
288 41 550 49 368 12 581 42 697 100 25 13 100 80 183 164 116 118 151 148
208 175 37 18 67 35 67 38 0 3 -31 3 -70 1 -92 -7 -164 -43 -254 -128 -142
-134 -191 -159 -381 -197 -79 -16 -141 -17 -510 -15 -416 2 -525 7 -508 22 4
4 44 13 88 19 109 15 357 63 352 67 -2 2 -51 -3 -108 -11 -147 -22 -424 -30
-537 -16 -139 17 -185 40 -347 167 -38 30 -110 75 -160 99 -95 46 -195 80
-195 65z"/>
<path d="M11616 3869 c-136 -20 -234 -95 -308 -236 -101 -192 -132 -341 -132
-648 -1 -164 3 -232 18 -308 10 -54 20 -96 23 -93 3 2 -1 31 -8 63 -9 36 -14
127 -14 243 0 165 3 199 29 320 58 276 122 426 226 531 94 95 125 104 360 103
139 0 202 -4 254 -17 72 -18 228 -84 281 -119 l30 -20 -30 27 c-46 39 -181
103 -267 124 -70 18 -301 43 -372 40 -17 -1 -57 -5 -90 -10z"/>
<path d="M5455 3847 c10 -16 14 -34 10 -47 -7 -22 -74 -60 -143 -80 -72 -22
-39 -22 83 0 118 21 161 36 185 65 11 13 10 19 -5 35 -17 18 -36 26 -119 46
l-28 7 17 -26z"/>
<path d="M3346 3838 c40 -69 97 -132 275 -308 114 -113 198 -191 186 -175 -11
17 -105 113 -207 215 -103 102 -201 206 -219 233 -18 26 -34 47 -37 47 -3 0
-2 -6 2 -12z"/>
<path d="M12514 3757 c99 -128 206 -278 251 -352 l35 -59 0 36 c0 26 -13 54
-47 104 -58 86 -206 264 -268 324 -41 39 -37 32 29 -53z"/>
<path d="M11569 3617 c-96 -57 -240 -290 -288 -466 -48 -176 -51 -395 -6 -577
25 -104 50 -179 41 -119 -3 17 -15 73 -26 125 -40 189 -23 437 41 597 65 165
182 358 258 426 24 21 41 40 39 43 -3 2 -29 -11 -59 -29z"/>
<path d="M11679 3562 c-53 -34 -91 -80 -155 -188 -52 -87 -96 -188 -120 -273
-24 -87 -30 -330 -10 -415 43 -181 153 -316 259 -316 85 0 192 65 341 209 114
111 236 257 236 284 0 12 -27 -16 -69 -70 -128 -165 -319 -332 -422 -368 -128
-46 -234 23 -300 194 -33 85 -38 263 -10 401 20 103 56 208 88 256 8 13 13 24
10 24 -4 0 -18 -17 -32 -37 -35 -52 -31 -25 6 50 65 128 141 221 212 259 17 9
27 17 21 18 -5 0 -30 -13 -55 -28z"/>
<path d="M464 3565 c-10 -8 -14 -15 -8 -15 5 0 19 7 30 15 10 8 14 15 8 15 -5
0 -19 -7 -30 -15z"/>
<path d="M12410 3578 c0 -5 25 -38 55 -75 64 -79 127 -201 152 -293 11 -42 17
-102 17 -170 0 -92 -4 -116 -32 -197 -17 -51 -50 -129 -72 -173 -23 -45 -37
-79 -31 -76 19 12 113 187 143 268 78 209 18 459 -156 643 -41 44 -75 77 -76
73z"/>
<path d="M1452 3469 c10 -5 56 -67 102 -137 98 -148 192 -252 426 -466 117
-108 173 -154 184 -150 9 4 23 1 31 -6 9 -7 17 -11 19 -9 2 2 -39 42 -91 89
-178 159 -409 395 -507 517 -90 114 -150 173 -172 173 -5 0 -1 -5 8 -11z"/>
<path d="M1073 3455 c-80 -22 -170 -71 -224 -122 -92 -86 -125 -205 -117 -416
7 -154 23 -172 32 -35 18 261 59 366 175 449 76 54 171 82 264 77 133 -7 183
-48 335 -274 55 -82 120 -176 146 -209 82 -106 369 -406 443 -466 70 -55 230
-145 241 -134 3 3 3 7 1 8 -2 2 -47 36 -100 75 -186 138 -461 445 -654 730
-195 288 -239 323 -400 329 -58 2 -109 -2 -142 -12z"/>
<path d="M9525 3416 c-66 -19 -274 -118 -398 -190 -155 -89 -601 -396 -722
-496 -66 -54 -118 -106 -129 -128 -22 -43 -34 -156 -17 -166 6 -4 11 0 11 9 0
29 39 93 118 192 121 151 176 196 521 427 251 168 468 277 552 276 19 0 66 2
104 5 59 5 75 3 102 -14 56 -35 76 -90 83 -226 l5 -120 8 90 c14 159 -18 289
-79 330 -37 24 -98 28 -159 11z"/>
<path d="M330 3379 c-30 -12 -300 -172 -297 -176 2 -1 41 14 88 34 46 20 107
39 135 41 46 4 54 1 87 -28 127 -111 209 -582 133 -764 -8 -19 -31 -53 -52
-76 -62 -68 -120 -91 -308 -119 -65 -10 -111 -22 -114 -29 -3 -9 11 -11 55 -6
143 15 252 34 295 53 65 27 122 82 147 140 43 101 46 351 6 561 -32 167 -113
382 -143 379 -4 0 -18 -5 -32 -10z"/>
<path d="M11623 3268 c-108 -120 -176 -337 -153 -496 15 -110 25 -94 25 41 0
111 4 144 23 207 24 74 58 148 107 228 29 47 29 53 -2 20z"/>
<path d="M1084 3256 c-72 -33 -124 -110 -124 -182 0 -41 27 -27 59 30 40 71
96 106 170 106 65 0 104 -16 164 -70 26 -23 47 -38 47 -33 0 4 -18 33 -39 63
-27 39 -53 63 -91 82 -65 35 -118 36 -186 4z"/>
<path d="M12751 3270 c0 -3 10 -39 24 -80 17 -54 24 -67 24 -45 1 24 -46 143
-48 125z"/>
<path d="M8658 3185 c-159 -66 -293 -87 -558 -89 l-215 -1 -53 -29 c-108 -60
-170 -156 -200 -313 -38 -199 -13 -269 159 -438 116 -115 175 -191 214 -278
15 -33 24 -45 25 -32 1 14 5 10 15 -15 26 -69 15 4 -13 86 -30 84 -93 186
-206 334 -36 46 -72 104 -81 129 -19 57 -19 173 0 239 31 103 130 191 239 211
129 23 248 42 320 51 135 17 293 75 401 149 39 27 24 26 -47 -4z"/>
<path d="M140 3156 c-30 -7 -71 -20 -90 -29 -25 -12 -28 -16 -10 -12 80 18
130 22 166 16 46 -9 109 -44 123 -68 4 -9 14 -14 20 -12 18 6 -27 69 -64 90
-44 25 -83 29 -145 15z"/>
<path d="M12413 3125 c0 -27 2 -38 4 -22 2 15 2 37 0 50 -2 12 -4 0 -4 -28z"/>
<path d="M1222 3147 c21 -8 49 -22 64 -32 38 -24 38 -13 1 13 -18 12 -48 24
-67 27 l-35 6 37 -14z"/>
<path d="M10052 3073 c-51 -194 -57 -235 -57 -393 0 -110 5 -178 18 -235 9
-44 21 -114 26 -155 l10 -75 -4 90 c-1 50 -11 137 -20 195 -23 144 -16 300 24
494 17 82 29 151 27 153 -2 2 -13 -31 -24 -74z"/>
<path d="M11001 3075 c-1 -75 35 -372 64 -524 15 -81 25 -173 26 -235 1 -68 4
-91 9 -71 15 58 10 147 -19 338 -17 105 -37 258 -46 339 -19 172 -33 232 -34
153z"/>
<path d="M12562 2980 c-16 -96 -62 -202 -159 -365 -69 -115 -91 -143 -197
-245 -265 -256 -349 -342 -305 -309 84 62 383 336 421 385 51 68 154 244 199
340 37 78 64 196 57 246 -2 13 -9 -11 -16 -52z"/>
<path d="M5485 3026 c49 -16 121 -52 130 -66 13 -21 -26 -20 -171 4 -214 36
-304 41 -392 22 -137 -29 -212 -93 -220 -188 -5 -69 23 -112 98 -153 80 -42
189 -46 367 -11 73 14 163 28 200 32 76 7 126 -6 117 -30 -5 -12 1 -14 28 -11
18 2 70 7 116 9 98 6 166 33 184 71 10 23 9 33 -12 72 -31 59 -126 143 -203
182 -35 16 -106 42 -158 56 -97 26 -155 34 -84 11z m-179 -127 c63 -24 107
-60 102 -86 -10 -53 -173 -123 -285 -123 -106 0 -168 40 -168 110 0 50 41 95
105 115 59 20 170 12 246 -16z"/>
<path d="M10250 2963 c-37 -117 -38 -239 -2 -433 17 -91 38 -211 47 -268 9
-57 23 -120 31 -140 l14 -37 -5 35 c-3 19 -19 123 -35 230 -16 107 -37 236
-46 285 -19 104 -15 226 11 324 22 86 12 89 -15 4z"/>
<path d="M5 3009 c-11 -16 -3 -17 40 -3 l40 12 -37 1 c-20 1 -40 -4 -43 -10z"/>
<path d="M18 2914 c-10 -3 -18 -13 -18 -22 0 -14 11 -17 64 -17 70 0 100 -15
140 -69 30 -39 30 -143 0 -183 -30 -41 -81 -72 -146 -90 -43 -12 -58 -21 -58
-34 0 -15 6 -17 37 -12 161 22 247 102 247 228 0 74 -31 144 -77 177 -25 18
-47 23 -102 25 -38 1 -78 -1 -87 -3z"/>
<path d="M1324 2885 c-3 -8 -1 -30 6 -49 10 -31 27 -45 123 -102 194 -117 308
-200 434 -317 100 -95 139 -123 220 -165 54 -28 128 -62 165 -76 92 -34 156
-78 269 -183 53 -50 117 -104 143 -122 52 -36 336 -174 343 -167 3 2 -49 45
-114 95 -209 160 -236 183 -327 268 -97 93 -187 158 -208 150 -32 -11 -275 96
-353 156 -22 17 -74 60 -115 97 -117 102 -165 139 -310 240 -74 52 -163 115
-196 142 -68 53 -72 55 -80 33z"/>
<path d="M8643 2808 c-139 -116 -271 -347 -281 -495 -5 -78 10 -102 23 -36 21
114 159 387 251 496 36 42 64 77 62 77 -2 0 -26 -19 -55 -42z"/>
<path d="M9096 2825 c-128 -52 -220 -139 -278 -262 -33 -70 -58 -153 -58 -196
0 -52 22 -23 41 53 43 167 133 291 255 351 73 36 157 42 199 15 53 -35 93
-117 123 -256 l10 -45 1 60 c1 85 -17 183 -42 230 -42 77 -140 96 -251 50z"/>
<path d="M12776 2722 c-47 -195 -190 -468 -330 -627 -42 -48 -50 -61 -26 -42
109 89 273 337 350 530 26 65 30 88 28 147 l-3 69 -19 -77z"/>
<path d="M2920 2572 c-12 -37 -23 -51 -50 -64 l-35 -18 33 0 c47 0 72 30 72
85 0 25 -1 45 -2 45 -2 0 -10 -21 -18 -48z"/>
<path d="M11221 2554 c0 -11 3 -14 6 -6 3 7 2 16 -1 19 -3 4 -6 -2 -5 -13z"/>
<path d="M10117 2355 c11 -282 -23 -558 -81 -673 -56 -110 -111 -136 -455
-211 -108 -24 -367 -124 -408 -158 l-28 -22 30 -1 c17 0 93 19 170 41 250 74
402 55 469 -59 6 -11 19 -30 29 -44 42 -59 42 -215 1 -417 -31 -149 -73 -220
-212 -358 -107 -106 -134 -148 -157 -245 -15 -65 -20 -164 -9 -192 10 -25 37
-20 31 5 -9 36 13 141 40 192 33 59 85 108 155 143 128 65 234 82 279 45 24
-19 24 -22 24 -210 l0 -191 35 0 36 0 28 85 c48 148 104 202 296 284 92 38
137 64 170 95 25 24 81 69 125 101 118 86 185 146 240 216 l50 64 -49 -38
c-27 -20 -51 -35 -54 -32 -3 3 12 42 34 87 34 73 39 94 42 174 3 69 0 105 -13
144 -17 51 -76 130 -97 130 -7 0 -6 -5 0 -13 40 -47 55 -264 26 -366 -32 -115
-124 -212 -294 -312 -120 -70 -202 -94 -320 -94 -141 0 -169 24 -191 167 -7
40 -19 81 -28 92 -28 32 -21 234 13 381 62 267 117 320 371 360 68 11 119 24
134 36 15 10 92 34 173 54 81 19 177 47 213 61 86 35 174 115 210 190 52 110
77 341 55 499 -20 144 -29 142 -29 -6 -1 -159 -28 -289 -82 -390 -44 -82 -98
-126 -225 -183 -189 -85 -466 -125 -572 -81 -83 34 -104 99 -122 385 -21 333
-64 545 -53 265z"/>
<path d="M10403 2409 c12 -183 54 -281 147 -337 51 -31 60 -33 120 -29 160 10
277 133 288 302 4 71 -13 165 -27 149 -4 -5 -14 -42 -20 -82 -28 -162 -140
-241 -284 -201 -57 16 -110 76 -162 183 -25 52 -51 98 -57 102 -8 5 -10 -18
-5 -87z"/>
<path d="M11381 2479 c-1 -23 75 -252 99 -299 11 -21 33 -49 49 -63 60 -50
120 -44 218 20 47 31 180 143 169 143 -2 0 -28 -16 -57 -36 -171 -116 -281
-115 -358 4 -25 40 -69 130 -109 222 -7 16 -11 19 -11 9z"/>
<path d="M12766 2440 c-16 -30 -40 -72 -53 -93 -40 -64 -9 -33 42 42 27 40 45
76 43 87 -3 14 -12 4 -32 -36z"/>
<path d="M5311 2444 c-47 -8 -86 -16 -88 -18 -3 -2 65 -4 149 -3 135 1 167 -3
268 -27 219 -53 283 -65 414 -76 326 -27 479 -73 651 -194 329 -233 343 -245
493 -414 69 -77 112 -109 180 -132 l27 -10 -25 18 c-62 42 -115 102 -167 186
-133 216 -164 247 -356 362 -62 37 -156 96 -209 131 -175 114 -208 123 -548
133 -215 7 -292 13 -405 34 -156 28 -258 31 -384 10z"/>
<path d="M9850 2332 c0 -197 -34 -315 -116 -402 -57 -61 -118 -97 -249 -145
-205 -75 -316 -118 -321 -126 -10 -17 419 112 494 149 168 82 233 229 218 496
-9 166 -25 184 -26 28z"/>
<path d="M166 2400 c-16 -5 -60 -12 -98 -16 -50 -5 -68 -10 -68 -21 0 -12 9
-13 43 -8 67 12 151 35 162 46 11 11 1 11 -39 -1z"/>
<path d="M9526 2265 c-24 -61 -100 -142 -177 -187 -73 -44 -72 -50 3 -12 75
38 141 105 173 175 15 33 25 63 22 65 -2 2 -12 -16 -21 -41z"/>
<path d="M3955 2212 c6 -6 53 -25 105 -43 90 -30 107 -32 310 -40 118 -5 310
-18 425 -30 176 -18 236 -20 370 -13 258 13 277 12 530 -50 135 -32 275 -60
340 -66 61 -6 141 -16 178 -21 38 -6 71 -9 73 -6 6 6 -147 41 -273 62 -91 15
-117 22 -373 100 -141 42 -196 46 -512 30 -116 -5 -200 -4 -278 5 -61 6 -251
15 -423 20 -315 8 -352 12 -462 55 -14 6 -17 5 -10 -3z"/>
<path d="M3363 2185 c-69 -30 -66 -133 8 -277 45 -85 59 -97 33 -27 -35 94
-17 195 40 233 46 30 144 49 221 42 84 -7 63 5 -49 28 -92 20 -210 20 -253 1z"/>
<path d="M5295 2181 c-14 -7 -6 -8 26 -4 73 9 211 -15 363 -62 189 -58 243
-71 366 -90 149 -22 305 -59 378 -88 125 -51 269 -178 347 -306 20 -34 42 -60
49 -58 20 7 8 89 -24 153 -39 80 -159 195 -255 246 -119 62 -182 75 -570 118
-55 6 -170 29 -255 52 -133 35 -173 41 -280 44 -69 2 -134 0 -145 -5z"/>
<path d="M650 2149 c-97 -50 -155 -59 -409 -64 -129 -3 -236 -7 -239 -10 -14
-14 28 -17 280 -18 263 -2 275 -1 330 21 62 25 103 53 118 83 15 27 -11 23
-80 -12z"/>
<path d="M2730 2164 c0 -16 100 -117 415 -419 222 -212 278 -278 410 -480 123
-188 185 -263 372 -445 114 -112 176 -181 221 -248 58 -87 78 -133 50 -116 -6
4 3 -13 19 -37 17 -24 72 -128 123 -232 81 -166 94 -187 116 -187 l24 0 -29
57 c-16 32 -52 123 -81 203 -96 265 -151 350 -369 575 -150 154 -227 251 -219
276 2 7 36 -18 76 -56 40 -37 72 -63 72 -58 0 6 -10 18 -21 29 -12 10 -81 109
-154 220 -125 188 -142 208 -257 315 -67 63 -195 184 -283 270 -157 152 -229
207 -402 307 -81 47 -83 48 -83 26z"/>
<path d="M7 2153 c-17 -16 -2 -19 66 -11 107 12 111 16 21 17 -44 0 -84 -2
-87 -6z"/>
<path d="M1843 2114 c-13 -3 -32 -17 -43 -31 -40 -52 -22 -125 90 -363 105
-223 122 -273 128 -395 8 -180 -44 -378 -164 -616 -66 -132 -66 -134 -61 -196
6 -58 5 -63 -14 -63 -11 0 -34 7 -50 16 -29 15 -30 14 -20 -4 20 -37 70 -71
115 -77 26 -4 93 0 163 10 119 17 263 16 287 -3 6 -5 56 -13 111 -16 310 -22
473 -124 535 -333 l13 -43 54 0 c61 0 61 -2 38 104 -30 142 -102 251 -209 315
-82 49 -168 78 -381 126 -220 50 -285 72 -339 117 -50 41 -66 82 -66 165 0 68
27 211 51 268 l12 30 8 -30 c4 -16 12 -65 18 -109 27 -197 111 -264 439 -350
208 -55 285 -84 374 -143 119 -78 198 -214 234 -400 l18 -93 49 0 50 0 -7 108
c-3 59 -18 178 -32 265 -16 97 -24 171 -19 193 19 106 152 121 325 39 84 -41
89 -42 64 -14 -19 22 -19 22 6 14 54 -16 177 -102 267 -188 106 -102 191 -201
282 -329 50 -71 67 -88 87 -88 l25 0 -24 42 c-232 408 -331 526 -633 755 -172
131 -230 186 -263 252 -38 74 -24 76 52 6 61 -57 308 -245 321 -245 2 0 -27
30 -65 67 -70 68 -87 93 -47 72 13 -7 -20 30 -73 82 -63 61 -127 138 -185 222
-95 139 -192 239 -288 296 -31 19 -137 67 -236 107 -279 114 -309 131 -454
263 -102 92 -188 141 -301 170 -81 22 -201 34 -242 25z m493 -485 c32 -11 124
-36 204 -54 177 -41 381 -111 456 -156 31 -19 76 -56 100 -83 42 -46 59 -77
149 -273 49 -106 102 -157 296 -285 85 -56 183 -131 233 -179 84 -79 133 -136
124 -144 -2 -2 -30 16 -61 40 -90 71 -196 140 -283 184 -77 38 -120 54 -324
115 -111 33 -140 62 -178 176 -67 198 -131 262 -296 297 -198 41 -365 -59
-366 -220 0 -134 78 -192 360 -267 205 -54 249 -81 315 -194 27 -47 58 -127
51 -134 -3 -2 -31 19 -63 47 -87 78 -207 133 -422 191 -261 72 -329 105 -383
189 -38 60 -36 33 3 -40 18 -33 29 -62 26 -66 -15 -14 -85 48 -108 94 -20 41
-24 62 -23 148 0 55 11 170 23 255 19 125 22 176 16 264 l-7 109 26 -7 c15 -4
26 -2 26 4 0 16 42 12 106 -11z m393 -602 c13 -16 5 -27 -19 -27 -20 0 -43 24
-33 33 11 12 40 8 52 -6z m-380 -553 c57 -8 105 -15 107 -16 1 -2 -117 -3
-262 -3 -145 0 -264 1 -264 3 0 6 57 24 100 32 53 10 175 4 319 -16z"/>
<path d="M6566 2072 c5 -5 41 -32 81 -61 100 -72 229 -212 287 -310 99 -169
209 -255 386 -303 120 -32 333 -33 401 -2 146 68 207 235 165 457 -17 90 -50
192 -66 202 -4 3 2 -23 13 -58 17 -51 21 -88 21 -202 1 -134 0 -142 -28 -198
-31 -64 -92 -117 -159 -137 -49 -14 -184 -14 -239 0 -173 46 -241 87 -330 198
-131 163 -282 292 -440 377 -77 42 -116 57 -92 37z"/>
<path d="M1310 2056 c0 -35 70 -114 154 -176 175 -129 241 -187 301 -266 33
-44 70 -93 83 -110 l22 -29 -15 40 c-29 74 -96 176 -163 247 -65 69 -354 308
-373 308 -5 0 -9 -6 -9 -14z"/>
<path d="M3656 2015 c-58 -21 -87 -54 -93 -109 -8 -70 35 -148 152 -276 124
-135 157 -179 245 -325 94 -156 150 -223 261 -315 97 -80 164 -160 210 -252
39 -78 79 -199 79 -241 0 -43 42 -232 70 -311 21 -63 67 -141 99 -170 11 -10
29 -16 40 -14 20 3 19 6 -14 52 -51 72 -73 141 -91 289 -21 170 -51 275 -121
417 -52 105 -66 124 -161 220 -57 58 -111 114 -120 124 -16 18 -16 19 2 12 13
-4 7 6 -16 32 -53 59 -109 146 -168 261 -29 57 -79 144 -111 192 -80 121 -99
162 -99 208 0 31 6 44 26 60 26 21 47 26 259 60 72 12 182 33 245 48 102 23
137 26 315 27 121 1 176 4 140 7 -110 12 -378 9 -485 -6 -144 -20 -245 -18
-402 5 -155 23 -209 24 -262 5z"/>
<path d="M12120 1959 c-108 -87 -161 -157 -261 -342 -70 -130 -135 -209 -239
-292 -47 -37 -76 -70 -95 -107 -123 -240 -597 -772 -831 -933 -162 -113 -254
-187 -291 -235 l-35 -45 51 -3 c49 -3 52 -1 138 67 48 39 140 105 203 147 167
112 218 153 364 292 141 134 223 200 299 238 26 13 47 31 47 38 0 20 80 57
108 50 12 -4 22 -10 22 -15 0 -5 13 -21 30 -35 43 -39 55 -83 40 -156 -20
-104 -78 -281 -136 -420 -31 -73 -62 -150 -70 -170 l-13 -38 29 0 c24 0 32 6
44 33 7 17 72 151 144 297 181 367 270 496 389 566 77 44 204 145 200 157 -2
7 -21 13 -43 15 -96 7 -252 34 -284 50 -19 9 -45 33 -58 52 -35 52 -27 154 27
330 74 242 118 332 210 428 51 53 56 67 11 31z"/>
<path d="M0 1940 c0 -5 19 -10 42 -10 49 0 47 5 -4 14 -24 4 -38 3 -38 -4z"/>
<path d="M4445 1909 c-65 -16 -188 -59 -215 -75 -28 -17 -26 -17 91 22 78 27
95 28 249 29 163 0 167 -1 355 -47 105 -26 251 -61 326 -77 187 -40 263 -83
302 -168 6 -13 14 -23 19 -23 11 0 10 27 -3 73 -24 89 -118 146 -285 172 -54
9 -193 35 -309 57 -173 34 -235 42 -350 44 -77 2 -158 -1 -180 -7z"/>
<path d="M8151 1888 c-1 -9 8 -77 19 -152 11 -75 24 -206 29 -291 10 -174 18
-196 79 -222 28 -12 59 -14 127 -10 86 5 172 23 162 33 -3 3 -36 10 -73 15
-38 5 -93 21 -122 35 -89 44 -109 94 -196 499 -14 61 -25 103 -25 93z"/>
<path d="M1 1866 c2 -2 105 -32 229 -66 322 -89 414 -131 457 -213 22 -42 21
-133 -2 -220 -9 -38 -15 -71 -12 -73 3 -3 18 19 35 48 101 177 101 296 1 363
-59 39 -136 60 -415 114 -244 48 -304 57 -293 47z"/>
<path d="M4524 1785 c-83 -18 -132 -45 -181 -98 -51 -55 -67 -108 -61 -205 8
-113 54 -196 187 -335 59 -62 126 -137 149 -167 53 -71 130 -233 180 -381 99
-288 185 -372 334 -327 83 25 172 140 192 248 7 34 6 34 -9 15 -9 -11 -27 -41
-40 -66 -70 -135 -200 -167 -289 -69 -41 45 -70 101 -173 329 -102 228 -165
329 -287 462 -113 123 -166 245 -152 348 14 106 77 176 185 208 76 22 220 13
431 -26 224 -42 241 -37 35 10 -307 70 -387 79 -501 54z"/>
<path d="M1242 1729 c-73 -21 -112 -77 -307 -439 -135 -253 -205 -346 -345
-464 -44 -36 -44 -37 -15 -31 150 31 276 166 415 445 88 176 137 257 189 314
57 61 109 85 182 86 190 1 362 -178 362 -376 0 -112 -34 -175 -178 -324 -143
-149 -176 -210 -201 -370 -16 -104 -16 -122 5 -350 4 -52 5 -123 2 -157 l-7
-63 52 0 53 0 6 55 c5 37 0 104 -14 202 -36 252 -25 380 42 491 18 30 76 101
131 160 54 58 115 130 134 160 34 51 37 53 43 31 5 -22 7 -20 18 16 20 68 25
159 11 216 -31 135 -144 282 -266 346 -102 54 -230 75 -312 52z"/>
<path d="M5789 1653 c-14 -29 -24 -53 -23 -53 10 0 55 81 52 92 -1 7 -15 -11
-29 -39z"/>
<path d="M604 1442 c0 -88 -5 -121 -27 -187 -27 -81 -29 -114 -4 -53 46 111
69 285 42 330 -7 12 -10 -14 -11 -90z"/>
<path d="M1312 1477 c-43 -13 -116 -79 -147 -131 -29 -50 -57 -126 -46 -126 4
0 38 34 76 76 104 116 195 149 290 105 22 -10 53 -33 69 -50 39 -41 50 -39 31
7 -40 99 -165 154 -273 119z"/>
<path d="M4866 1314 c-9 -8 -16 -24 -16 -34 0 -33 81 -177 129 -229 58 -63 82
-71 116 -37 21 21 25 34 25 83 0 34 -8 74 -19 98 -43 96 -186 168 -235 119z"/>
<path d="M5965 1263 c-119 -36 -203 -141 -251 -313 -15 -53 -19 -103 -19 -275
0 -193 2 -221 29 -349 28 -138 32 -258 11 -308 -12 -29 11 -20 25 10 28 59 24
167 -11 337 -31 144 -34 176 -33 320 0 229 34 351 126 451 59 65 114 88 208
87 131 -1 236 -51 396 -188 51 -44 111 -92 134 -108 46 -31 95 -102 112 -162
16 -58 13 -190 -7 -265 -9 -36 -43 -132 -74 -215 -58 -150 -81 -226 -81 -264
0 -17 6 -21 33 -21 32 0 33 1 50 68 10 37 42 117 72 177 30 61 50 111 46 113
-5 2 2 44 16 95 44 170 42 339 -7 453 -42 96 -155 185 -363 284 -174 84 -303
107 -412 73z"/>
<path d="M10561 1180 c-73 -27 -74 -31 -5 -24 78 8 136 -8 179 -51 55 -56 64
-115 30 -210 -12 -33 33 24 55 70 38 79 18 156 -53 209 -40 29 -136 32 -206 6z"/>
<path d="M7360 1131 c-14 -5 -54 -14 -89 -20 -36 -7 -81 -21 -101 -31 -42 -21
-106 -89 -122 -128 -16 -41 -37 -112 -33 -112 1 0 15 20 29 45 28 46 81 84 97
68 6 -6 3 -26 -6 -52 -8 -23 -17 -65 -20 -94 l-6 -52 19 52 c10 28 30 67 45
86 55 72 167 97 255 57 23 -11 40 -15 37 -10 -14 22 28 22 58 -1 99 -72 110
-166 47 -385 -53 -184 -56 -216 -35 -399 l19 -155 38 0 38 0 2 143 c4 324 2
303 47 452 56 185 65 297 29 365 -54 100 -259 201 -348 171z"/>
<path d="M8400 840 c-121 -25 -188 -51 -270 -105 -84 -54 -158 -127 -197 -192
-68 -117 -101 -281 -88 -447 6 -91 8 -96 30 -96 22 0 22 3 28 133 16 375 145
535 540 666 70 24 127 47 127 52 0 14 -76 9 -170 -11z"/>
<path d="M6070 812 c-19 -9 -43 -32 -53 -50 -25 -42 -33 -146 -18 -209 18 -70
74 -181 117 -232 74 -86 143 -89 224 -12 46 43 50 51 65 126 21 102 13 161
-28 223 -47 69 -204 172 -263 172 -5 0 -25 -8 -44 -18z"/>
<path d="M6648 693 c6 -110 -15 -195 -96 -390 -67 -160 -102 -261 -102 -290 0
-8 12 -13 34 -13 33 0 34 1 40 51 4 28 23 94 43 147 110 299 117 322 117 417
1 84 -15 155 -34 155 -3 0 -5 -35 -2 -77z"/>
<path d="M7027 749 c-21 -34 -43 -103 -62 -189 -9 -47 -34 -110 -65 -170 -105
-200 -160 -316 -166 -352 l-6 -38 46 0 c45 0 45 0 57 42 16 63 47 118 141 258
106 158 114 185 100 337 -11 125 -21 150 -45 112z"/>
<path d="M7543 758 c-6 -7 -13 -30 -17 -50 -4 -20 -36 -96 -72 -169 -35 -72
-67 -151 -71 -176 -4 -29 3 -89 21 -181 15 -75 30 -147 32 -159 4 -20 10 -23
54 -23 28 0 50 3 50 8 0 4 -9 76 -20 160 -23 172 -19 216 27 377 14 50 26 116
27 147 1 60 -13 89 -31 66z"/>
<path d="M7955 626 c-59 -62 -113 -160 -145 -261 -16 -53 -23 -106 -27 -218
l-6 -147 30 0 29 0 0 158 c-1 120 3 172 17 222 24 89 78 197 128 253 56 65 36
59 -26 -7z"/>
<path d="M1478 588 c-24 -42 -16 -237 16 -368 15 -63 28 -138 29 -167 l2 -53
122 0 c79 0 124 4 129 11 14 23 219 149 288 178 103 43 231 64 346 58 169 -8
270 -64 329 -180 l34 -67 64 0 c35 0 63 4 63 10 0 38 -49 128 -97 180 -99 107
-235 152 -458 152 -165 0 -253 -18 -379 -76 -175 -82 -257 -95 -331 -53 -78
44 -139 183 -139 320 -1 42 -2 77 -3 77 -1 0 -8 -10 -15 -22z"/>
<path d="M2430 605 c0 -2 46 -18 103 -35 147 -45 204 -67 272 -105 76 -42 164
-133 197 -205 28 -59 58 -180 58 -229 0 -30 1 -31 50 -31 36 0 50 4 50 14 0 7
-11 57 -24 110 -70 273 -213 390 -569 462 -123 25 -137 27 -137 19z"/>
<path d="M3920 606 c0 -4 36 -54 81 -113 81 -108 142 -205 241 -388 40 -73 61
-101 76 -103 12 -2 22 -2 22 0 0 2 -36 73 -80 157 -93 177 -163 284 -234 360
-50 52 -106 98 -106 87z"/>
<path d="M4270 597 c0 -8 14 -45 31 -82 17 -37 54 -141 84 -230 64 -195 107
-285 135 -285 18 0 16 7 -19 78 -21 42 -60 142 -86 222 -60 183 -145 357 -145
297z"/>
<path d="M3373 573 c-34 -7 -71 -47 -83 -93 -8 -31 -8 -75 -1 -167 6 -68 11
-167 11 -219 l0 -94 55 0 56 0 -3 224 c-3 208 -2 225 16 245 31 34 89 28 165
-16 62 -37 323 -276 431 -395 44 -49 57 -58 86 -58 l35 0 -59 77 c-109 143
-232 277 -310 340 -151 121 -293 177 -399 156z"/>
<path d="M4625 530 c3 -19 12 -96 20 -170 16 -153 32 -214 71 -273 47 -74 64
-87 108 -87 l40 0 -41 30 c-41 30 -90 98 -112 155 -6 17 -24 98 -40 180 -16
83 -34 161 -40 175 -11 23 -11 22 -6 -10z"/>
<path d="M8396 535 c-192 -79 -274 -201 -284 -422 -4 -110 -4 -113 17 -113 19
0 21 6 21 53 0 28 7 80 15 115 40 169 146 280 331 348 41 15 74 31 74 35 0 19
-115 8 -174 -16z"/>
<path d="M745 500 c-89 -28 -167 -86 -184 -137 -13 -36 -13 -45 3 -86 24 -64
88 -159 148 -223 l51 -54 87 0 c98 0 105 4 139 81 33 73 46 189 32 269 -28
155 -114 201 -276 150z m114 -153 c51 -47 65 -132 35 -207 -34 -85 -110 -86
-183 -4 -71 81 -92 162 -52 198 53 48 154 55 200 13z"/>
<path d="M1063 478 c7 -21 12 -90 12 -183 -1 -136 -3 -157 -27 -222 l-26 -73
38 0 c39 0 39 0 49 53 20 106 22 150 11 244 -11 93 -41 196 -60 208 -5 3 -4
-9 3 -27z"/>
<path d="M8213 451 c-99 -77 -144 -181 -151 -344 -4 -104 -4 -107 17 -107 20
0 21 5 21 98 0 157 33 248 123 340 61 62 57 67 -10 13z"/>
<path d="M9152 420 c0 -19 2 -27 5 -17 2 9 2 25 0 35 -3 9 -5 1 -5 -18z"/>
<path d="M10516 350 c-114 -55 -225 -113 -247 -131 -48 -38 -92 -100 -119
-168 l-20 -51 39 0 c37 0 40 3 65 54 35 72 106 136 207 187 111 55 302 190
288 203 -3 3 -99 -39 -213 -94z"/>
<path d="M3513 379 c-42 -15 -55 -53 -64 -177 -4 -64 -8 -136 -8 -159 l-1 -43
83 0 c75 0 86 3 127 31 41 28 51 30 102 26 31 -3 82 -17 114 -31 41 -19 73
-26 117 -26 l60 0 -24 26 c-13 15 -82 78 -154 141 -203 178 -295 233 -352 212z"/>
<path d="M11683 228 c-69 -128 -113 -215 -113 -223 0 -14 41 -3 47 13 3 9 34
84 69 166 35 82 62 151 60 153 -1 2 -30 -48 -63 -109z"/>
<path d="M12142 310 c-73 -16 -169 -103 -254 -230 -43 -65 -48 -76 -32 -79 12
-2 27 9 43 30 45 62 175 185 216 203 21 11 59 21 82 24 24 2 43 7 43 11 -1 29
-52 51 -98 41z"/>
<path d="M5784 255 c3 -16 8 -48 11 -70 5 -36 -3 -100 -21 -162 -5 -17 -2 -23
9 -23 26 0 41 98 28 176 -12 68 -35 138 -27 79z"/>
<path d="M11095 244 c-180 -46 -352 -115 -455 -183 l-85 -56 89 -3 c78 -2 94
0 136 22 113 59 235 82 295 54 14 -6 35 -26 46 -45 19 -31 24 -33 75 -33 l54
0 0 68 c0 80 -13 133 -39 156 -20 18 -81 28 -116 20z"/>
<path d="M2241 199 c-125 -22 -281 -99 -350 -173 l-23 -25 426 0 c333 0 426 3
426 13 0 25 -60 106 -97 130 -21 14 -58 33 -83 41 -54 20 -223 28 -299 14z"/>
<path d="M7003 185 c-58 -29 -163 -137 -163 -167 0 -17 13 -18 216 -18 l215 0
-6 23 c-16 56 -60 130 -91 153 -50 39 -107 42 -171 9z"/>
<path d="M9390 67 c0 -31 5 -59 10 -62 7 -4 8 13 4 52 -9 76 -14 80 -14 10z"/>
<path d="M8462 74 c-12 -8 -29 -28 -37 -45 -15 -29 -15 -29 12 -29 20 0 36 10
56 35 15 19 34 35 42 35 8 0 15 5 15 10 0 16 -63 12 -88 -6z"/>
<path d="M630 52 c0 -14 37 -58 43 -52 3 3 -6 18 -19 33 -13 15 -24 24 -24 19z"/>
<path d="M12039 33 c-48 -25 -51 -28 -28 -31 25 -3 98 34 99 51 0 12 -14 8
-71 -20z"/>
<path d="M8525 10 c-3 -5 3 -10 14 -10 11 0 23 5 26 10 3 6 -3 10 -14 10 -11
0 -23 -4 -26 -10z"/>
</g>
</svg>
