<svg version="1.2" xmlns="http://www.w3.org/2000/svg" viewBox="0 0 136 50" width="136" height="50">
	<title>logo-desktop-svg</title>
	<style>
		.s0 { fill: #0b5940 } 
	</style>
	<path id="Layer" class="s0" d="m11.7 12.8q2.6 1.1 5 2.6 2.4 1.5 4.6 3.2 2.2 1.7 4.1 3.7 0.8 0.7 1.5 1.5h-8.6q-0.9-1.6-1.9-3-0.9-1.5-2.1-2.8-1.1-1.4-2.3-2.7-1.3-1.3-2.6-2.4-1.4-1.1-2.9-2.2 2.7 0.9 5.2 2.1z"/>
	<path id="Layer" class="s0" d="m16.9 26.1q0.7 1.3 1.3 2.6 0.6 1.3 1.2 2.6 0.5 1.3 1 2.7 0.5 1.4 0.9 2.7h-11.4q-0.2-1.3-0.5-2.6-0.2-1.4-0.5-2.7-0.3-1.3-0.6-2.6-0.3-1.4-0.7-2.7z"/>
	<path id="Layer" class="s0" d="m5.9 21.1c-1.7-4.6-3.7-8.2-5.9-10.7v-0.4c6 2.3 11.4 7.2 15.6 13.8h-8.7q-0.5-1.4-1-2.7z"/>
	<path id="Layer" class="s0" d="m28.9 26.1q1 1.2 1.9 2.5 0.9 1.3 1.7 2.6 0.8 1.4 1.5 2.7 0.7 1.4 1.3 2.8h-11.5q-0.4-1.3-0.9-2.7-0.4-1.3-1-2.7-0.5-1.3-1.1-2.6-0.6-1.3-1.2-2.6z"/>
	<path id="Layer" class="s0" d="m8.8 49.9h-8.8v-10.8h7.9q0.7 5.2 0.9 10.8z"/>
	<path id="Layer" fill-rule="evenodd" class="s0" d="m50 0v49.9h-8.7q-0.5-4.1-1.6-8.1-1.2-4-3-7.7-1.8-3.8-4.2-7.1-2.4-3.4-5.4-6.4-2.7-2.7-5.9-5-3.1-2.3-6.5-4-3.5-1.8-7.2-3-3.7-1.2-7.5-1.8v-6.8zm-19.4 4.4h-2v11.6h2zm7.6 3c0-1.7-1-3.1-3-3.1-2.1 0-3 1.3-3 2.9v6c0 1.7 0.9 3 3 3 2 0 3-1.3 3-3v-1.3h-2v1.4c0 0.7-0.2 1.1-1 1.1-0.8 0-1-0.4-1-1.2v-5.9c0-0.9 0.2-1.3 1-1.3 0.5 0 1 0.4 1 1.4v0.9h2zm7.4 0c0-1.7-1-3.2-3-3.2-2.1 0-3.1 1.3-3.1 3v6c0 1.6 1 2.9 3.1 2.9 2 0 3-1.3 3-2.9v-1.4h-2v1.4c0 0.8-0.2 1.2-1 1.2-0.8 0-1.1-0.4-1.1-1.3v-5.9c0-0.8 0.3-1.2 1.1-1.2 0.5 0 1 0.4 1 1.4v0.9h2z"/>
	<path id="Layer" class="s0" d="m11.2 49.9q-0.3-5.6-1-10.8h11.7q0.4 1.3 0.7 2.7 0.2 1.3 0.5 2.7 0.2 1.3 0.4 2.7 0.1 1.4 0.2 2.7z"/>
	<path id="Layer" class="s0" d="m37.2 41.7q0.4 1.4 0.8 2.7 0.3 1.4 0.5 2.8 0.3 1.3 0.4 2.7h-12.8q-0.1-1.3-0.3-2.7-0.1-1.4-0.3-2.7-0.3-1.4-0.5-2.7-0.3-1.4-0.6-2.7h11.9q0.5 1.3 0.9 2.6z"/>
	<path id="Layer" class="s0" d="m4.4 23.8h-4.4v-9.5q0.6 0.9 1.1 1.8 0.5 0.9 1 1.9 0.4 0.9 0.9 1.9 0.4 1 0.7 2 0.4 0.9 0.7 1.9z"/>
	<path id="Layer" class="s0" d="m5.9 28.8q0.3 1.3 0.6 2.6 0.3 1.3 0.5 2.7 0.3 1.3 0.5 2.6h-7.5v-10.6h5.1q0.4 1.3 0.8 2.7z"/>
	<path id="Layer" class="s0" d="m56.4 5.2h1.1v10.3h-1.1z"/>
	<path id="Layer" class="s0" d="m61.3 5.2l2.6 7.6h0.1v-7.6h1.1v10.3h-1.2l-3.3-9v9h-1.1v-10.3z"/>
	<path id="Layer" class="s0" d="m71.8 5.2v0.9h-2.2v9.4h-1.1v-9.4h-2.1v-0.9z"/>
	<path id="Layer" class="s0" d="m77.9 5.2v0.9h-3.6v3.6h2.6v0.9h-2.6v4h3.8v0.9h-5v-10.3z"/>
	<path id="Layer" fill-rule="evenodd" class="s0" d="m79.6 5.2h2.5c1.7 0 2.9 1 2.9 2.7q0 0.4-0.1 0.8-0.1 0.4-0.3 0.7-0.2 0.4-0.5 0.6-0.4 0.3-0.8 0.4l1.8 5.1h-1.2l-1.7-4.9-1.4 0.1v4.8h-1.1zm1.1 4.6h1c1.6 0 2.1-0.7 2.1-1.8 0-1.2-0.5-1.8-2.1-1.8h-1z"/>
	<path id="Layer" class="s0" d="m88.5 5.2l2.7 7.6v-7.6h1.1v10.3h-1.2l-3.2-9v9h-1.1v-10.3z"/>
	<path id="Layer" fill-rule="evenodd" class="s0" d="m97.5 5.2l2.3 10.3h-1.1l-0.6-3h-2.7l-0.6 3h-1.1l2.3-10.3zm-2 6.3h2.4l-1.2-5.5z"/>
	<path id="Layer" class="s0" d="m105.1 5.2v0.9h-2.1v9.4h-1.1v-9.4h-2.2v-0.9z"/>
	<path id="Layer" class="s0" d="m106.5 5.2h1.1v10.3h-1.1z"/>
	<path id="Layer" fill-rule="evenodd" class="s0" d="m112.4 15.7c-1.8 0-3-1.5-3-5.3 0-3.9 1.2-5.3 3-5.3 1.7 0 2.9 1.4 2.9 5.3 0 3.8-1.2 5.3-2.9 5.3zm0-9.7c-1 0-1.8 0.9-1.8 4.4 0 3.5 0.8 4.3 1.8 4.3 1 0 1.8-0.8 1.8-4.3 0-3.5-0.8-4.4-1.8-4.4z"/>
	<path id="Layer" class="s0" d="m118.8 5.2l2.7 7.6v-7.6h1.1v10.3h-1.2l-3.2-9v9h-1.1v-10.3z"/>
	<path id="Layer" fill-rule="evenodd" class="s0" d="m127.8 5.2l2.3 10.3h-1.1l-0.6-3h-2.7l-0.6 3h-1.1l2.3-10.3zm-2 6.3h2.4l-1.2-5.5z"/>
	<path id="Layer" class="s0" d="m132.6 5.2v9.4h3.4v0.9h-4.5v-10.3z"/>
	<path id="Layer" class="s0" d="m60.6 22.6c-0.2-1.6-0.7-2.3-1.6-2.3-1.3 0-1.9 1.2-1.9 4.4 0 3.2 0.6 4.3 1.9 4.3 1.1 0 1.7-0.7 1.7-2.6h1.1c0 2.3-1 3.6-2.8 3.6-1.9 0-3-1.4-3-5.3 0-3.9 1.1-5.3 3-5.3 1.5 0 2.5 1 2.7 3.2z"/>
	<path id="Layer" fill-rule="evenodd" class="s0" d="m66.2 30c-1.7 0-2.9-1.5-2.9-5.3 0-3.9 1.2-5.3 2.9-5.3 1.8 0 3 1.4 3 5.3 0 3.8-1.2 5.3-3 5.3zm0-9.7c-1 0-1.8 0.9-1.8 4.4 0 3.5 0.8 4.3 1.8 4.3 1.1 0 1.9-0.8 1.9-4.3 0-3.5-0.8-4.4-1.9-4.4z"/>
	<path id="Layer" fill-rule="evenodd" class="s0" d="m71 19.5h1.9c2.2 0 3.5 1.2 3.5 5.2 0 3.9-1.3 5.1-3.5 5.1h-1.9zm1.1 9.4h0.6c1.6 0 2.6-0.7 2.6-4.2 0-3.5-1-4.2-2.6-4.2h-0.6z"/>
	<path id="Layer" class="s0" d="m83 19.5v1h-3.6v3.5h2.7v0.9h-2.7v4h3.8v0.9h-5v-10.3z"/>
	<path id="Layer" class="s0" d="m60.6 36.9c-0.2-1.6-0.7-2.3-1.6-2.3-1.3 0-1.9 1.2-1.9 4.4 0 3.2 0.6 4.3 1.9 4.3 1.1 0 1.7-0.7 1.7-2.6h1.1c0 2.3-1 3.6-2.8 3.6-1.9 0-3-1.4-3-5.3 0-3.9 1.1-5.3 3-5.3 1.5 0 2.5 1 2.7 3.2z"/>
	<path id="Layer" fill-rule="evenodd" class="s0" d="m66.2 44.3c-1.7 0-2.9-1.5-2.9-5.3 0-3.9 1.2-5.3 2.9-5.3 1.8 0 3 1.4 3 5.3 0 3.8-1.2 5.3-3 5.3zm0-9.7c-1 0-1.8 0.9-1.8 4.4 0 3.5 0.8 4.3 1.8 4.3 1.1 0 1.9-0.8 1.9-4.3 0-3.5-0.8-4.4-1.9-4.4z"/>
	<path id="Layer" class="s0" d="m72.1 33.8v7.6c0 1 0.3 1.9 1.5 1.9 1.2 0 1.5-0.9 1.5-1.9v-7.6h1.1v7.6c0 1.7-0.8 2.9-2.6 2.9-1.9 0-2.7-1.2-2.7-2.9v-7.6z"/>
	<path id="Layer" class="s0" d="m80 33.8l2.6 7.6h0.1v-7.6h1.1v10.3h-1.2l-3.2-8.9h-0.1v8.9h-1.1v-10.3z"/>
	<path id="Layer" class="s0" d="m90.1 36.9c-0.2-1.6-0.7-2.3-1.6-2.3-1.3 0-1.9 1.2-1.9 4.4 0 3.2 0.6 4.3 1.9 4.3 1.1 0 1.7-0.7 1.7-2.6h1.1c0 2.3-1 3.6-2.8 3.6-1.9 0-3-1.4-3-5.3 0-3.9 1.1-5.3 3-5.3 1.5 0 2.5 1 2.7 3.2z"/>
	<path id="Layer" class="s0" d="m93.1 33.8h1.1v10.3h-1.1z"/>
	<path id="Layer" class="s0" d="m97.4 33.8v9.4h3.4v0.9h-4.5v-10.3z"/>
	<path id="Layer" fill-rule="evenodd" class="s0" d="m101.6 33.8c0.8 0 1.5 0.5 1.8 1.3 0.3 0.8 0.1 1.6-0.5 2.2-0.5 0.6-1.4 0.7-2.2 0.4-0.7-0.3-1.2-1-1.2-1.9q0-0.4 0.1-0.7 0.2-0.4 0.5-0.7 0.3-0.3 0.7-0.4 0.3-0.2 0.8-0.2zm0 0.3c-0.7 0-1.4 0.4-1.7 1.1-0.2 0.6-0.1 1.3 0.4 1.8 0.5 0.5 1.2 0.7 1.8 0.4 0.7-0.2 1.1-0.9 1.1-1.6q0-0.3-0.1-0.6-0.1-0.3-0.4-0.6-0.2-0.2-0.5-0.3-0.3-0.2-0.6-0.2zm-0.5 2.9h-0.3v-2.3h0.9q0.8 0 0.8 0.6 0 0.2 0 0.3-0.1 0.1-0.2 0.2-0.1 0.1-0.2 0.1-0.1 0.1-0.2 0.1l0.6 1h-0.4l-0.6-1h-0.4zm0-1.3h0.4c0.5 0 0.6-0.1 0.6-0.4 0-0.3-0.1-0.3-0.5-0.3h-0.5z"/>
</svg>